<svg width="35" height="35" viewBox="0 0 35 35" fill="none" xmlns="http://www.w3.org/2000/svg">
<path d="M17.5057 0C10.1996 0 8.06287 0.0075391 7.64753 0.0420036C6.14819 0.166668 5.21522 0.402803 4.19879 0.909C3.41548 1.29807 2.79771 1.74907 2.18802 2.38128C1.07765 3.53422 0.404697 4.95265 0.161089 6.63872C0.0426501 7.45725 0.00819504 7.62418 0.00119636 11.8052C-0.00149545 13.1988 0.00119636 15.033 0.00119636 17.4931C0.00119636 24.7953 0.00927176 26.9305 0.0442652 27.3451C0.165396 28.8045 0.394199 29.7226 0.878724 30.7269C1.8047 32.6494 3.57322 34.0926 5.65667 34.6311C6.37807 34.8169 7.17485 34.9192 8.19773 34.9677C8.63111 34.9865 13.0484 35 17.4683 35C21.8882 35 26.3082 34.9946 26.7308 34.9731C27.9152 34.9173 28.6029 34.825 29.3634 34.6284C31.4603 34.0872 33.1965 32.6656 34.1413 30.7162C34.6164 29.7361 34.8573 28.7829 34.9664 27.3998C34.99 27.0982 35 22.2902 35 17.4886C35 12.6862 34.9892 7.88698 34.9655 7.58541C34.8552 6.17991 34.6143 5.23483 34.1238 4.2359C33.7214 3.41817 33.2746 2.80751 32.6258 2.18311C31.4681 1.07701 30.0522 0.40388 28.365 0.160475C27.5475 0.0422728 27.3846 0.00726985 23.2016 0H17.5057Z" fill="url(#paint0_radial_519_176)"/>
<path d="M17.5057 0C10.1996 0 8.06287 0.0075391 7.64753 0.0420036C6.14819 0.166668 5.21522 0.402803 4.19879 0.909C3.41548 1.29807 2.79771 1.74907 2.18802 2.38128C1.07765 3.53422 0.404697 4.95265 0.161089 6.63872C0.0426501 7.45725 0.00819504 7.62418 0.00119636 11.8052C-0.00149545 13.1988 0.00119636 15.033 0.00119636 17.4931C0.00119636 24.7953 0.00927176 26.9305 0.0442652 27.3451C0.165396 28.8045 0.394199 29.7226 0.878724 30.7269C1.8047 32.6494 3.57322 34.0926 5.65667 34.6311C6.37807 34.8169 7.17485 34.9192 8.19773 34.9677C8.63111 34.9865 13.0484 35 17.4683 35C21.8882 35 26.3082 34.9946 26.7308 34.9731C27.9152 34.9173 28.6029 34.825 29.3634 34.6284C31.4603 34.0872 33.1965 32.6656 34.1413 30.7162C34.6164 29.7361 34.8573 28.7829 34.9664 27.3998C34.99 27.0982 35 22.2902 35 17.4886C35 12.6862 34.9892 7.88698 34.9655 7.58541C34.8552 6.17991 34.6143 5.23483 34.1238 4.2359C33.7214 3.41817 33.2746 2.80751 32.6258 2.18311C31.4681 1.07701 30.0522 0.40388 28.365 0.160475C27.5475 0.0422728 27.3846 0.00726985 23.2016 0H17.5057Z" fill="url(#paint1_radial_519_176)"/>
<path d="M17.4977 4.57764C13.9886 4.57764 13.5482 4.59298 12.17 4.65572C10.7945 4.71873 9.85563 4.93655 9.03409 5.25616C8.18429 5.58626 7.46342 6.02784 6.74525 6.74647C6.02654 7.46484 5.58508 8.1859 5.25399 9.03567C4.93367 9.8577 4.71563 10.7971 4.65372 12.1725C4.59208 13.551 4.57593 13.9918 4.57593 17.5018C4.57593 21.0118 4.59154 21.4509 4.65399 22.8295C4.71725 24.2054 4.93501 25.1446 5.25426 25.9663C5.58455 26.8164 6.026 27.5374 6.74444 28.2558C7.46235 28.9747 8.18321 29.4174 9.03247 29.7475C9.85455 30.0671 10.7937 30.2849 12.169 30.3479C13.5472 30.4106 13.9873 30.426 17.496 30.426C21.0053 30.426 21.4444 30.4106 22.8226 30.3479C24.1981 30.2849 25.1381 30.0671 25.9601 29.7475C26.8097 29.4174 27.5295 28.9747 28.2474 28.2558C28.9661 27.5374 29.4075 26.8164 29.7386 25.9666C30.0563 25.1446 30.2743 24.2051 30.3389 22.8298C30.4008 21.4512 30.417 21.0118 30.417 17.5018C30.417 13.9918 30.4008 13.5513 30.3389 12.1727C30.2743 10.7969 30.0563 9.8577 29.7386 9.03594C29.4075 8.1859 28.9661 7.46484 28.2474 6.74647C27.5287 6.02757 26.8099 5.58599 25.9593 5.25616C25.1356 4.93655 24.1962 4.71873 22.8207 4.65572C21.4425 4.59298 21.0037 4.57764 17.4936 4.57764H17.4977ZM16.3386 6.90668C16.6826 6.90614 17.0664 6.90668 17.4977 6.90668C20.9475 6.90668 21.3564 6.91907 22.7187 6.98099C23.9784 7.03861 24.6622 7.24917 25.1176 7.42607C25.7206 7.66032 26.1504 7.94034 26.6024 8.39269C27.0546 8.84504 27.3346 9.27584 27.5693 9.87897C27.7461 10.334 27.9569 11.0179 28.0143 12.278C28.0762 13.6404 28.0896 14.0497 28.0896 17.4988C28.0896 20.948 28.0762 21.3572 28.0143 22.7197C27.9566 23.9798 27.7461 24.6637 27.5693 25.1187C27.3351 25.7218 27.0546 26.1513 26.6024 26.6034C26.1502 27.0557 25.7208 27.3358 25.1176 27.57C24.6627 27.7477 23.9784 27.9577 22.7187 28.0153C21.3566 28.0773 20.9475 28.0907 17.4977 28.0907C14.0476 28.0907 13.6387 28.0773 12.2766 28.0153C11.0169 27.9572 10.3332 27.7466 9.87743 27.5697C9.27447 27.3355 8.84378 27.0555 8.39156 26.6031C7.93933 26.1508 7.65939 25.721 7.42466 25.1176C7.24781 24.6626 7.03704 23.9787 6.97971 22.7186C6.9178 21.3562 6.90541 20.9469 6.90541 17.4956C6.90541 14.0443 6.9178 13.6372 6.97971 12.2748C7.03731 11.0147 7.24781 10.3308 7.42466 9.8752C7.65885 9.27207 7.93933 8.84127 8.39156 8.38892C8.84378 7.93657 9.27447 7.65655 9.87743 7.42176C10.3329 7.24405 11.0169 7.03404 12.2766 6.97615C13.4686 6.9223 13.9305 6.90614 16.3386 6.90345V6.90668ZM24.3946 9.05263C23.5386 9.05263 22.8441 9.7465 22.8441 10.603C22.8441 11.4592 23.5386 12.1539 24.3946 12.1539C25.2506 12.1539 25.9451 11.4592 25.9451 10.603C25.9451 9.74677 25.2506 9.05209 24.3946 9.05209V9.05263ZM17.4977 10.8647C13.8333 10.8647 10.8624 13.8365 10.8624 17.5018C10.8624 21.1672 13.8333 24.1376 17.4977 24.1376C21.162 24.1376 24.1319 21.1672 24.1319 17.5018C24.1319 13.8365 21.162 10.8647 17.4977 10.8647ZM17.4977 13.1937C19.8761 13.1937 21.8045 15.1224 21.8045 17.5018C21.8045 19.8809 19.8761 21.8099 17.4977 21.8099C15.1189 21.8099 13.1908 19.8809 13.1908 17.5018C13.1908 15.1224 15.1189 13.1937 17.4977 13.1937Z" fill="white"/>
<defs>
<radialGradient id="paint0_radial_519_176" cx="0" cy="0" r="1" gradientUnits="userSpaceOnUse" gradientTransform="translate(9.29692 37.6957) rotate(-90) scale(34.6876 32.2622)">
<stop stop-color="#FFDD55"/>
<stop offset="0.1" stop-color="#FFDD55"/>
<stop offset="0.5" stop-color="#FF543E"/>
<stop offset="1" stop-color="#C837AB"/>
</radialGradient>
<radialGradient id="paint1_radial_519_176" cx="0" cy="0" r="1" gradientTransform="matrix(3.04338 15.2039 -62.6697 12.5517 -5.86269 2.52134)" gradientUnits="userSpaceOnUse">
<stop stop-color="#3771C8"/>
<stop offset="0.128" stop-color="#3771C8"/>
<stop offset="1" stop-color="#6600FF" stop-opacity="0"/>
</radialGradient>
</defs>
</svg>
