<svg width="20" height="20" viewBox="0 0 20 20" fill="none" xmlns="http://www.w3.org/2000/svg">
<path d="M10.0033 0C5.82836 0 4.60736 0.00430806 4.37002 0.024002C3.51325 0.0952388 2.98012 0.230173 2.39931 0.519429C1.9517 0.741755 1.59869 0.999469 1.25029 1.36073C0.615799 2.01956 0.231256 2.83009 0.0920511 3.79355C0.0243715 4.26128 0.00468288 4.35668 0.000683632 6.7458C-0.00085454 7.54218 0.000683632 8.59027 0.000683632 9.99608C0.000683632 14.1687 0.00529815 15.3888 0.0252944 15.6258C0.0945121 16.4597 0.225257 16.9844 0.502128 17.5583C1.03126 18.6568 2.04184 19.4815 3.23238 19.7892C3.64461 19.8954 4.09991 19.9538 4.68442 19.9815C4.93206 19.9923 7.4562 20 9.98188 20C12.5076 20 15.0332 19.9969 15.2747 19.9846C15.9515 19.9528 16.3445 19.9 16.7791 19.7877C17.9773 19.4784 18.9694 18.666 19.5093 17.5521C19.7808 16.9921 19.9185 16.4474 19.9808 15.657C19.9943 15.4847 20 12.7372 20 9.99346C20 7.24923 19.9938 4.50684 19.9803 4.33452C19.9172 3.53138 19.7796 2.99133 19.4993 2.42051C19.2694 1.95324 19.014 1.60429 18.6433 1.24749C17.9818 0.615437 17.1727 0.230789 16.2086 0.0917001C15.7414 0.0241559 15.6484 0.0041542 13.258 0H10.0033Z" fill="url(#paint0_radial_491_96)"/>
<path d="M10.0033 0C5.82836 0 4.60736 0.00430806 4.37002 0.024002C3.51325 0.0952388 2.98012 0.230173 2.39931 0.519429C1.9517 0.741755 1.59869 0.999469 1.25029 1.36073C0.615799 2.01956 0.231256 2.83009 0.0920511 3.79355C0.0243715 4.26128 0.00468288 4.35668 0.000683632 6.7458C-0.00085454 7.54218 0.000683632 8.59027 0.000683632 9.99608C0.000683632 14.1687 0.00529815 15.3888 0.0252944 15.6258C0.0945121 16.4597 0.225257 16.9844 0.502128 17.5583C1.03126 18.6568 2.04184 19.4815 3.23238 19.7892C3.64461 19.8954 4.09991 19.9538 4.68442 19.9815C4.93206 19.9923 7.4562 20 9.98188 20C12.5076 20 15.0332 19.9969 15.2747 19.9846C15.9515 19.9528 16.3445 19.9 16.7791 19.7877C17.9773 19.4784 18.9694 18.666 19.5093 17.5521C19.7808 16.9921 19.9185 16.4474 19.9808 15.657C19.9943 15.4847 20 12.7372 20 9.99346C20 7.24923 19.9938 4.50684 19.9803 4.33452C19.9172 3.53138 19.7796 2.99133 19.4993 2.42051C19.2694 1.95324 19.014 1.60429 18.6433 1.24749C17.9818 0.615437 17.1727 0.230789 16.2086 0.0917001C15.7414 0.0241559 15.6484 0.0041542 13.258 0H10.0033Z" fill="url(#paint1_radial_491_96)"/>
<path d="M9.99859 2.61572C7.99343 2.61572 7.74178 2.62449 6.95424 2.66034C6.16823 2.69634 5.63172 2.82082 5.16227 3.00345C4.67667 3.19208 4.26474 3.44441 3.85436 3.85506C3.44367 4.26555 3.19141 4.67759 3.00221 5.16317C2.81917 5.6329 2.69458 6.16972 2.6592 6.95563C2.62398 7.74339 2.61475 7.99525 2.61475 10.001C2.61475 12.0067 2.62367 12.2576 2.65935 13.0454C2.6955 13.8316 2.81994 14.3683 3.00237 14.8378C3.1911 15.3236 3.44336 15.7356 3.8539 16.1461C4.26413 16.5569 4.67605 16.8098 5.16134 16.9985C5.6311 17.1811 6.16777 17.3056 6.95362 17.3416C7.74117 17.3774 7.99266 17.3862 9.99767 17.3862C12.003 17.3862 12.2539 17.3774 13.0414 17.3416C13.8274 17.3056 14.3645 17.1811 14.8343 16.9985C15.3197 16.8098 15.731 16.5569 16.1413 16.1461C16.552 15.7356 16.8042 15.3236 16.9934 14.838C17.1749 14.3683 17.2995 13.8314 17.3364 13.0455C17.3718 12.2578 17.381 12.0067 17.381 10.001C17.381 7.99525 17.3718 7.74354 17.3364 6.95578C17.2995 6.16956 17.1749 5.6329 16.9934 5.16332C16.8042 4.67759 16.552 4.26555 16.1413 3.85506C15.7306 3.44425 15.3199 3.19193 14.8338 3.00345C14.3632 2.82082 13.8263 2.69634 13.0403 2.66034C12.2528 2.62449 12.0021 2.61572 9.99628 2.61572H9.99859ZM9.33625 3.9466C9.53283 3.9463 9.75217 3.9466 9.99859 3.9466C11.9699 3.9466 12.2036 3.95368 12.982 3.98907C13.7019 4.022 14.0926 4.14231 14.3528 4.2434C14.6974 4.37726 14.943 4.53727 15.2013 4.79575C15.4597 5.05424 15.6197 5.30041 15.7538 5.64506C15.8549 5.90508 15.9753 6.29588 16.0081 7.01594C16.0435 7.79447 16.0511 8.02833 16.0511 9.99927C16.0511 11.9702 16.0435 12.2041 16.0081 12.9826C15.9752 13.7027 15.8549 14.0935 15.7538 14.3535C15.62 14.6981 15.4597 14.9435 15.2013 15.2019C14.9429 15.4603 14.6976 15.6204 14.3528 15.7542C14.0929 15.8558 13.7019 15.9758 12.982 16.0087C12.2037 16.0441 11.9699 16.0518 9.99859 16.0518C8.02711 16.0518 7.79347 16.0441 7.01515 16.0087C6.29529 15.9755 5.90459 15.8551 5.64418 15.7541C5.29963 15.6202 5.05352 15.4602 4.79511 15.2017C4.53669 14.9432 4.37672 14.6977 4.24259 14.3529C4.14154 14.0928 4.0211 13.702 3.98833 12.982C3.95296 12.2035 3.94588 11.9696 3.94588 9.99742C3.94588 8.02526 3.95296 7.79262 3.98833 7.01409C4.02125 6.29403 4.14154 5.90323 4.24259 5.6429C4.37641 5.29826 4.53669 5.05208 4.79511 4.7936C5.05352 4.53512 5.29963 4.3751 5.64418 4.24094C5.90444 4.13939 6.29529 4.01938 7.01515 3.9863C7.69625 3.95553 7.9602 3.9463 9.33625 3.94476V3.9466ZM13.9397 5.17286C13.4506 5.17286 13.0537 5.56936 13.0537 6.05878C13.0537 6.54805 13.4506 6.94501 13.9397 6.94501C14.4288 6.94501 14.8257 6.54805 14.8257 6.05878C14.8257 5.56951 14.4288 5.17255 13.9397 5.17255V5.17286ZM9.99859 6.20833C7.90467 6.20833 6.20699 7.90648 6.20699 10.001C6.20699 12.0954 7.90467 13.7928 9.99859 13.7928C12.0925 13.7928 13.7896 12.0954 13.7896 10.001C13.7896 7.90648 12.0925 6.20833 9.99859 6.20833ZM9.99859 7.53922C11.3577 7.53922 12.4597 8.64131 12.4597 10.001C12.4597 11.3605 11.3577 12.4627 9.99859 12.4627C8.63931 12.4627 7.53751 11.3605 7.53751 10.001C7.53751 8.64131 8.63931 7.53922 9.99859 7.53922Z" fill="white"/>
<defs>
<radialGradient id="paint0_radial_491_96" cx="0" cy="0" r="1" gradientUnits="userSpaceOnUse" gradientTransform="translate(5.31253 21.5404) rotate(-90) scale(19.8215 18.4355)">
<stop stop-color="#FFDD55"/>
<stop offset="0.1" stop-color="#FFDD55"/>
<stop offset="0.5" stop-color="#FF543E"/>
<stop offset="1" stop-color="#C837AB"/>
</radialGradient>
<radialGradient id="paint1_radial_491_96" cx="0" cy="0" r="1" gradientTransform="matrix(1.73907 8.68794 -35.8113 7.17241 -3.35011 1.44077)" gradientUnits="userSpaceOnUse">
<stop stop-color="#3771C8"/>
<stop offset="0.128" stop-color="#3771C8"/>
<stop offset="1" stop-color="#6600FF" stop-opacity="0"/>
</radialGradient>
</defs>
</svg>
