<svg width="177" height="35" viewBox="0 0 177 35" fill="none" xmlns="http://www.w3.org/2000/svg">
<path d="M60.6944 0.0418167V22.5419C60.6944 29.9105 55.0818 35 46.7172 35C38.3525 35 32.7343 29.9105 32.7343 22.5419V0.0418167H38.9178V22.0163C38.9178 26.3461 41.961 29.4821 46.7172 29.4821C51.4733 29.4821 54.4652 26.3461 54.4652 22.0163V0.0418167H60.6944Z" fill="#393C3D"/>
<path d="M65.9417 0.207466H78.9482C86.8846 0.207466 91.144 5.03992 91.144 11.6888C91.144 18.3377 86.839 23.1131 78.8512 23.1131H72.1595V34.8515H65.9417V0.207466ZM77.989 18.0064C82.6766 18.0064 84.7835 15.3731 84.7835 11.6888C84.7835 8.00451 82.6766 5.4055 77.989 5.4055H72.1595V17.9722L77.989 18.0064Z" fill="#393C3D"/>
<path d="M101.335 34.8515H95.1522V0.0703735H101.335V34.8515Z" fill="#393C3D"/>
<path d="M30.4105 27.5171C27.0133 30.219 21.1837 30.219 15.7196 27.6599C17.3811 22.856 18.0891 15.7159 18.3518 12.1629V12.0773C18.4431 9.87238 19.1397 6.09666 20.3444 4.99423C20.3937 4.93573 20.4561 4.88971 20.5266 4.85993C20.597 4.83015 20.6735 4.81745 20.7498 4.82286C20.9839 4.82286 21.0296 4.89141 21.0867 4.97138C21.8004 5.89674 21.6576 8.79279 21.3151 10.535L23.6674 11.0319L26.0255 11.5346C26.2482 10.4836 27.236 5.09133 24.8836 2.04677C24.4312 1.44223 23.8504 0.945713 23.1829 0.593062C22.5154 0.240411 21.778 0.0404262 21.0239 0.00754335C20.312 -0.0306155 19.5998 0.0762833 18.9304 0.321757C18.261 0.56723 17.6485 0.946163 17.1299 1.43557C14.0467 4.24023 13.6242 10.495 13.5671 11.8431C13.2542 16.3803 12.5357 20.8804 11.4202 25.2894C8.63965 23.7585 6.02463 22.6961 3.70081 23.5415C0.703243 24.6382 -0.324493 28.2768 0.0866017 30.476C0.663276 33.5149 3.5752 34.8515 6.11599 34.8515H6.39576C7.41208 34.8515 10.2212 34.5716 13.3444 31.8412C18.8942 34.5145 25.9056 35.5084 31.3526 32.6066L30.4162 27.5171H30.4105ZM6.43002 30.0533H6.19021C5.72202 30.0533 4.85416 29.8819 4.79706 29.5906C4.71712 29.1394 5.06541 28.174 5.36802 28.0769C5.91044 27.9113 7.3093 28.5396 8.7253 29.2993C8.03822 29.7316 7.25639 29.9904 6.44715 30.0533H6.43002Z" fill="#BED586"/>
<path d="M148.201 0.0361023L158.529 25.318H158.963L169.292 0.0361023H177V34.8515H170.976V10.8948H170.639L160.979 34.743H156.514L146.853 10.8035H146.568V34.8515H140.51V0.0361023H148.201Z" fill="#393C3D"/>
<path d="M130.426 34.8515H130.301C128.934 34.8179 127.633 34.2582 126.668 33.2889C125.703 32.3195 125.15 31.0153 125.122 29.6477C124.968 26.8888 126.578 23.4501 128.445 19.463C130.541 14.9847 133.413 8.8442 131.568 6.60504C131.454 6.46795 131.357 6.3937 131.283 6.38798C131.071 6.415 130.872 6.50449 130.712 6.64503C129.815 7.69035 128.028 13.7281 126.595 18.5834C126.104 20.2342 125.59 21.9649 125.054 23.7243C123.449 29.0023 120.966 32.4524 117.671 34.0061C116.515 34.5404 115.26 34.8248 113.987 34.8405C112.714 34.8563 111.451 34.6031 110.283 34.0975C108.964 33.4701 107.827 32.5157 106.981 31.325C106.134 30.1343 105.606 28.7468 105.447 27.2943C105.11 23.4501 106.88 19.2974 111.373 13.3796C115.159 8.39865 114.908 5.95386 114.491 5.41121C114.414 5.31898 114.313 5.24989 114.199 5.21158C114.085 5.17327 113.963 5.16724 113.846 5.19415C111.773 6.3023 110.14 9.44397 109.683 10.5578L104.927 8.63856C105.161 8.06735 107.348 2.84647 111.43 0.641589C112.579 0.0656861 113.886 -0.109399 115.146 0.144204C116.405 0.397806 117.543 1.06552 118.379 2.04106C119.972 3.90892 121.702 8.26156 115.461 16.4642C110.768 22.6218 110.403 25.3351 110.534 26.8545C110.618 27.3799 110.819 27.8798 111.121 28.3176C111.424 28.7554 111.82 29.1201 112.281 29.385C112.784 29.6137 113.33 29.732 113.883 29.732C114.435 29.732 114.981 29.6137 115.484 29.385C117.368 28.5053 118.973 26.0548 120.12 22.2848C120.657 20.5255 121.165 18.8061 121.651 17.1439C123.997 9.20977 125.293 4.98851 126.869 3.23489C127.447 2.61554 128.147 2.12193 128.924 1.78484C129.701 1.44776 130.539 1.27442 131.386 1.27563C132.186 1.29813 132.971 1.49599 133.686 1.85524C134.401 2.2145 135.029 2.72641 135.525 3.35485C139.436 8.10162 136.068 15.3046 133.093 21.6336C131.722 24.5697 130.169 27.917 130.238 29.3564C130.238 29.7049 130.346 29.7106 130.409 29.7106C130.849 29.7106 131.802 29.0023 132.031 26.7745L137.141 27.2943C136.627 32.5095 133.321 34.8515 130.426 34.8515Z" fill="#F09AB6"/>
</svg>
