<svg width="125" height="30" viewBox="0 0 125 30" fill="none" xmlns="http://www.w3.org/2000/svg">
<path d="M5.71623 6.04607C3.97566 6.04607 2.56948 7.1902 2.56948 8.6032C2.56948 10.0162 3.97566 11.1603 5.71623 11.1603C7.45679 11.1603 8.86596 10.0132 8.86596 8.6032C8.86596 7.19319 7.4538 6.04607 5.71623 6.04607ZM5.71623 10.1058C4.78176 10.1058 4.02343 9.43068 4.02343 8.61216C4.02343 7.79364 4.78176 7.11851 5.71623 7.11851C6.6507 7.11851 7.40305 7.79065 7.40305 8.61216C7.40305 9.43366 6.65069 10.0998 5.71921 10.0998L5.71623 10.1058Z" fill="#6D6E71"/>
<path d="M5.12505 4.85133H7.38211V6.07313H8.83905V0.573516C8.83669 0.456777 8.78828 0.34571 8.70438 0.264557C8.62048 0.183404 8.5079 0.138761 8.39122 0.140363H7.38211V1.21877H5.07728C4.79726 0.932913 4.46268 0.706281 4.09342 0.552329C3.72415 0.398377 3.32773 0.320246 2.9277 0.322584C2.55257 0.297793 2.17634 0.350322 1.82232 0.476917C1.46831 0.603512 1.14403 0.801481 0.869573 1.05856C0.595118 1.31564 0.376329 1.62636 0.226753 1.97148C0.0771769 2.31659 0 2.68876 0 3.06493C0 3.4411 0.0771769 3.81327 0.226753 4.15838C0.376329 4.5035 0.595118 4.81421 0.869573 5.07129C1.14403 5.32837 1.46831 5.52634 1.82232 5.65293C2.17634 5.77953 2.55257 5.83206 2.9277 5.80727C3.34008 5.80842 3.74823 5.72407 4.12642 5.55954C4.50461 5.39502 4.84463 5.15387 5.12505 4.85133ZM7.38211 2.27329V3.7998H5.72514C5.7957 3.56018 5.83189 3.31175 5.83262 3.06194C5.83347 2.79426 5.79216 2.52811 5.71021 2.27329H7.38211ZM1.47375 3.06194C1.47375 2.1299 2.12161 1.37113 2.9277 1.37113C3.73379 1.37113 4.37866 2.1299 4.37866 3.06194C4.37866 3.99398 3.72782 4.74976 2.9277 4.74976C2.12758 4.74976 1.47375 3.99398 1.47375 3.06194Z" fill="#6D6E71"/>
<path d="M30.6125 0.143331H29.6034V7.25907C28.5402 7.51425 27.4515 7.64853 26.3581 7.65936H21.8799V8.70791H25.558C27.5643 8.70791 28.7764 8.45996 29.6064 8.17617V10.7542H31.0633V0.576484C31.0622 0.51842 31.0496 0.461161 31.0263 0.407965C31.003 0.35477 30.9695 0.306684 30.9276 0.266459C30.8858 0.226234 30.8364 0.194652 30.7823 0.173525C30.7282 0.152398 30.6706 0.142142 30.6125 0.143331Z" fill="#6D6E71"/>
<path d="M38.16 4.02079H40.0259V8.46888H41.4828V0.576433C41.4805 0.459694 41.4321 0.348627 41.3482 0.267474C41.2643 0.186322 41.1517 0.141679 41.035 0.14328H40.0259V2.96926H38.16V4.02079Z" fill="#6D6E71"/>
<path d="M35.7477 4.44791C36.5627 5.75336 38.2973 6.76306 38.2973 6.76306L39.1482 5.88779C36.5985 4.28958 36.4612 2.96024 36.4791 1.63985V1.61894H38.7033V0.567412H32.786V1.61894H35.0102V1.63985C35.0281 2.96024 34.8908 4.28958 32.3412 5.88779L33.192 6.76306C33.192 6.76306 34.9356 5.75336 35.7477 4.44791Z" fill="#6D6E71"/>
<path d="M36.1418 9.29335V7.41136H34.6848V9.50247C34.6875 9.66802 34.7228 9.83142 34.7887 9.98333C34.8545 10.1352 34.9496 10.2727 35.0686 10.3878C35.1875 10.5029 35.3279 10.5935 35.4819 10.6543C35.6358 10.7151 35.8002 10.745 35.9656 10.7422H41.5695V9.69067H36.5508C36.4454 9.68716 36.3452 9.64452 36.2696 9.57107C36.194 9.49761 36.1484 9.3986 36.1418 9.29335Z" fill="#6D6E71"/>
<path d="M47.9943 6.04607C46.2537 6.04607 44.8445 7.19319 44.8445 8.6032C44.8445 10.0132 46.2537 11.1603 47.9943 11.1603C49.7348 11.1603 51.141 10.0162 51.141 8.6032C51.141 7.1902 49.7348 6.04607 47.9943 6.04607ZM47.9943 10.1058C47.0628 10.1058 46.3074 9.43366 46.3074 8.61216C46.3074 7.79065 47.0628 7.11851 47.9943 7.11851C48.9257 7.11851 49.6841 7.79065 49.6841 8.61216C49.6841 9.43366 48.9287 10.0998 47.9943 10.0998V10.1058Z" fill="#6D6E71"/>
<path d="M51.1679 2.53312V0.576433C51.1655 0.459694 51.1171 0.348627 51.0332 0.267474C50.9493 0.186322 50.8367 0.141679 50.7201 0.14328H49.711V4.12534C48.4619 4.375 47.1951 4.52583 45.9223 4.57643C45.1282 4.59435 44.7639 4.53759 44.752 3.78778V1.62797H48.3346V0.576433H43.301V3.82661C43.301 5.12908 43.8205 5.65484 45.1759 5.71757C46.1134 5.75939 48.3973 5.39794 49.711 5.08128V6.088H51.1679V3.5966H52.7144V2.54506L51.1679 2.53312Z" fill="#6D6E71"/>
<path d="M19.5571 0.576546C19.5547 0.459807 19.5063 0.34874 19.4224 0.267588C19.3385 0.186435 19.226 0.141792 19.1093 0.143394H18.1031V7.25913C17.0447 7.5132 15.9612 7.64747 14.8728 7.65943V6.53023C15.4687 6.37541 15.9967 6.02783 16.3747 5.54157C16.7527 5.05532 16.9594 4.45767 16.9627 3.84166C16.9626 3.20916 16.7443 2.59607 16.3447 2.10604H17.4165V1.05452H14.8668V0H13.38V1.05452H10.8423V2.10604H11.9141C11.5155 2.59129 11.2953 3.19863 11.2902 3.82673C11.2935 4.44274 11.5002 5.04038 11.8781 5.52664C12.2561 6.01289 12.7841 6.36048 13.38 6.5153V7.64748H10.3647V8.69901H14.0428C16.0491 8.69901 17.2582 8.45405 18.0912 8.17026V10.7423H19.5452V4.67811H21.2051V3.62657H19.5452L19.5571 0.576546ZM12.7531 3.82673C12.7531 2.86781 13.3502 2.09111 14.1204 2.09111C14.8907 2.09111 15.4848 2.86781 15.4848 3.82673C15.4848 4.78565 14.8877 5.56235 14.1204 5.56235C13.3532 5.56235 12.7531 4.80059 12.7531 3.82673Z" fill="#6D6E71"/>
<path d="M25.2624 6.4882C25.8702 6.48349 26.4629 6.29885 26.966 5.95757C27.469 5.61629 27.8598 5.13364 28.0891 4.57046C28.3184 4.00729 28.376 3.38879 28.2546 2.79293C28.1331 2.19707 27.8381 1.65052 27.4067 1.22217C26.9752 0.793827 26.4268 0.502856 25.8303 0.385941C25.2339 0.269027 24.6162 0.331403 24.0552 0.565199C23.4941 0.798996 23.0148 1.19375 22.6776 1.6997C22.3404 2.20566 22.1605 2.80018 22.1605 3.4083C22.162 3.81433 22.2435 4.21607 22.4003 4.59059C22.557 4.96512 22.7859 5.30508 23.074 5.59108C23.362 5.87707 23.7035 6.1035 24.079 6.25743C24.4545 6.41136 24.8567 6.48978 25.2624 6.4882ZM25.2624 1.38291C26.1581 1.38291 26.9015 2.2791 26.9015 3.4083C26.9015 4.5375 26.1671 5.43668 25.2624 5.43668C24.3578 5.43668 23.6234 4.54049 23.6234 3.4083C23.6234 2.27612 24.3548 1.38291 25.2595 1.38291H25.2624Z" fill="#6D6E71"/>
<path d="M57.8794 18.0253C62.6562 19.2471 67.6898 21.3412 73.8161 22.8318C77.3979 21.7921 80.8919 20.4706 84.2655 18.8797C88.4747 16.8785 93.0072 15.6453 97.6496 15.2381H36.9956C38.16 15.2979 39.3214 15.3576 40.4827 15.4443C46.615 15.9043 51.9262 16.4958 57.8794 18.0253Z" fill="#80C342"/>
<path d="M41.6172 21.9596C51.768 25.5234 62.286 26.1418 73.8161 22.8318C67.6898 21.3382 62.6443 19.2471 57.8794 18.0253C51.9262 16.4958 46.615 15.9043 40.4827 15.4443C39.3214 15.3576 38.16 15.2979 36.9956 15.2381H0.45869V19.982C2.59179 19.1226 4.7789 18.4041 7.00595 17.8311C18.754 14.8797 30.4274 18.0283 41.6172 21.9596Z" fill="#EC008C"/>
<path d="M103.603 15.2381C109.839 15.7863 115.847 17.854 121.101 21.2605L125 15.2381H103.603Z" fill="#EC008C"/>
<path d="M97.6526 15.2381C93.0101 15.6453 88.4777 16.8785 84.2684 18.8797C80.8949 20.4706 77.4009 21.7921 73.8191 22.8318C76.9498 23.6066 80.1376 24.128 83.3519 24.3912C90.556 24.9707 94.885 23.4353 101.113 21.7415C113.909 18.2613 121.116 21.2605 121.116 21.2605C115.857 17.8517 109.844 15.784 103.603 15.2381H97.6526Z" fill="#00AEEF"/>
<path d="M101.11 21.7504C94.882 23.4442 90.553 24.9796 83.3489 24.4001C80.1347 24.1369 76.9468 23.6155 73.8161 22.8407C62.286 26.1417 51.759 25.5293 41.6172 21.9684C30.4274 18.0282 18.754 14.8797 7.00595 17.8311C4.7789 18.4041 2.59179 19.1226 0.45869 19.982C0.45869 19.982 30.6334 20.7287 51.3948 25.8221C72.1562 30.9154 80.026 30.9871 91.998 27.9968C103.97 25.0065 111.822 21.2664 121.116 21.2575C121.101 21.2605 113.906 18.2612 101.11 21.7504Z" fill="#2E3192"/>
</svg>
