<svg width="73" height="30" viewBox="0 0 73 30" fill="none" xmlns="http://www.w3.org/2000/svg">
<path d="M14.7745 12.3484C14.1756 13.2278 13.4643 14.0256 12.6586 14.7218C12.3598 14.9788 12.0569 15.2234 11.7418 15.4477H17.803C17.492 15.2234 17.185 14.9788 16.8863 14.7218C16.082 14.0254 15.3721 13.2275 14.7745 12.3484ZM12.9164 2.74047H8.50862V5.59512H4.22771V2.74047H0V15.4477H9.23302L7.86198 13.6534C9.31423 12.8797 10.5785 11.7981 11.5658 10.4847C12.4707 9.22442 12.9443 7.70727 12.9164 6.15789V2.74047ZM8.50862 11.6143H4.22771V8.97176H8.50862V11.6143ZM72.4071 6.49637V2.73231H45.0601H39.0766V0H34.6443V2.73639H29.0251H16.6407V6.15381C16.6095 7.70431 17.0786 9.22384 17.979 10.4888C18.9604 11.7999 20.2175 12.8813 21.6624 13.6575L20.3364 15.4477H29.0251V6.47598H33.0195C32.1683 7.24821 31.5715 8.25894 31.3074 9.37538C31.0434 10.4918 31.1244 11.6617 31.5399 12.7314C31.9554 13.8011 32.686 14.7206 33.6355 15.3689C34.5851 16.0173 35.7093 16.3643 36.8604 16.3643C38.0116 16.3643 39.1358 16.0173 40.0853 15.3689C41.0349 14.7206 41.7655 13.8011 42.181 12.7314C42.5965 11.6617 42.6775 10.4918 42.4134 9.37538C42.1494 8.25894 41.5526 7.24821 40.7014 6.47598H48.989C48.8826 7.98894 48.2769 9.2246 47.1678 10.5133C45.9584 11.8774 44.4655 12.9628 42.7927 13.6942L45.2483 16.2022C46.3774 15.7603 47.4458 15.1779 48.4283 14.469C49.3739 13.7925 50.2281 12.9976 50.9698 12.1037L56.8019 16.3571L59.3188 13.4087L52.8402 8.86573C52.9526 8.4524 53.0415 8.03304 53.1062 7.60968C53.1799 7.15702 53.2372 6.88786 53.2699 6.46782H60.3134V15.4396H72.4071V11.4227H64.5943V6.49637H72.4071ZM24.9611 11.6143H20.893V6.41481H24.9611V11.6143ZM36.8625 12.6746C36.4578 12.6746 36.0621 12.5551 35.7256 12.331C35.3891 12.107 35.1268 11.7885 34.9719 11.4159C34.817 11.0433 34.7765 10.6334 34.8555 10.2378C34.9344 9.84228 35.1293 9.47896 35.4155 9.1938C35.7017 8.90863 36.0663 8.71443 36.4633 8.63576C36.8602 8.55708 37.2717 8.59746 37.6456 8.75179C38.0195 8.90612 38.3391 9.16747 38.5639 9.50278C38.7888 9.8381 38.9088 10.2323 38.9088 10.6356C38.911 10.9048 38.8596 11.1717 38.7578 11.4209C38.6559 11.6702 38.5055 11.8969 38.3153 12.088C38.125 12.2791 37.8987 12.4307 37.6494 12.5342C37.4 12.6377 37.1326 12.691 36.8625 12.691V12.6746Z" fill="#B72126"/>
<path d="M7.8867 21.2429C8.04917 21.2901 8.19792 21.3754 8.32052 21.4916C8.41868 21.6738 8.45866 21.8816 8.43512 22.087V24.0527C8.42935 24.2777 8.50984 24.4964 8.66021 24.6644C8.73756 24.7476 8.8322 24.8129 8.93753 24.8559C9.04285 24.8989 9.15633 24.9184 9.27002 24.9131H12.8593C13.0565 24.911 13.2449 24.8314 13.3836 24.6917C13.5223 24.552 13.6001 24.3634 13.6 24.1668V21.3122C13.5997 21.1382 13.539 20.9696 13.4281 20.8351C13.3188 20.7023 13.1645 20.6138 12.9943 20.5863L12.2044 20.4395C11.9794 20.4069 11.8443 20.464 11.7952 20.623C11.7832 20.6542 11.7782 20.6877 11.7803 20.721C11.7825 20.7544 11.7919 20.7869 11.8078 20.8163C11.8237 20.8457 11.8458 20.8713 11.8726 20.8915C11.8994 20.9116 11.9302 20.9258 11.963 20.9329C12.1242 20.9787 12.2745 21.0564 12.405 21.1613C12.4985 21.3258 12.5345 21.5166 12.5073 21.7037V22.2909H9.51149V21.6384C9.51047 21.4645 9.44982 21.2962 9.33959 21.1613C9.23544 21.0329 9.09151 20.9426 8.93033 20.9044L8.14863 20.7535C7.91535 20.7209 7.78029 20.778 7.73937 20.937C7.72649 20.9665 7.72014 20.9985 7.72074 21.0306C7.72135 21.0628 7.72889 21.0945 7.74287 21.1235C7.75685 21.1525 7.77693 21.1782 7.80174 21.1988C7.82656 21.2194 7.85554 21.2344 7.8867 21.2429ZM9.52376 23.1677C9.52327 23.1356 9.52957 23.1038 9.54227 23.0743C9.55496 23.0447 9.57376 23.0182 9.59743 22.9964C9.64403 22.9497 9.70731 22.9233 9.77341 22.923H12.5073V24.0282C12.5073 24.0942 12.481 24.1574 12.4342 24.2041C12.3874 24.2507 12.3239 24.277 12.2577 24.277H9.69156C9.64014 24.2833 9.58811 24.2718 9.54423 24.2443C9.51571 24.1935 9.50424 24.1349 9.51149 24.0771L9.52376 23.1677Z" fill="black"/>
<path d="M19.055 23.9633L21.1259 26.0023C21.2494 26.0969 21.4052 26.1394 21.5597 26.1206C21.7685 26.1206 21.8749 26.0309 21.8749 25.8514C21.8732 25.6518 21.83 25.4546 21.748 25.2724C21.6586 25.0675 21.5177 24.8891 21.3387 24.7544L19.4643 23.3761C19.6616 23.0531 19.8327 22.7149 19.9759 22.3647C20.0636 22.1508 20.1374 21.9315 20.1969 21.7081C20.2311 21.6382 20.2457 21.5604 20.2392 21.4829C20.2328 21.4053 20.2054 21.331 20.1601 21.2677C20.0804 21.1651 19.9676 21.0931 19.8408 21.0638L18.7767 20.762C18.6609 20.7252 18.5365 20.7252 18.4207 20.762C18.3766 20.7696 18.3347 20.7866 18.298 20.812C18.2612 20.8373 18.2305 20.8704 18.2079 20.9088C18.194 20.9695 18.201 21.033 18.2277 21.0892C18.2544 21.1454 18.2993 21.191 18.3552 21.2188C18.5279 21.3201 18.6885 21.4404 18.834 21.5776C18.9119 21.6438 18.9645 21.7346 18.9831 21.8348C19.0018 21.9351 18.9852 22.0386 18.9364 22.1282C18.6686 22.7864 18.3075 23.403 17.8641 23.9592C17.3633 24.58 16.816 25.1621 16.227 25.7006C16.1795 25.7485 16.1517 25.8126 16.1493 25.88C16.1429 25.9369 16.1559 25.9944 16.1861 26.0431C16.2701 26.1182 16.3803 26.1577 16.493 26.1532C16.6024 26.165 16.7126 26.1421 16.8082 26.088C17.258 25.7843 17.6823 25.4447 18.0769 25.0725C18.4401 24.737 18.7679 24.3654 19.055 23.9633Z" fill="black"/>
<path d="M38.4669 21.4344L40.4519 21.6057C40.5501 21.6014 40.647 21.5807 40.7384 21.5445C40.7884 21.5309 40.8325 21.5011 40.8636 21.4597C40.8948 21.4183 40.9112 21.3678 40.9103 21.3161C40.9115 21.2199 40.8765 21.1268 40.812 21.0551C40.7772 21.0171 40.7349 20.9866 40.6877 20.9655C40.6405 20.9445 40.5895 20.9333 40.5378 20.9328L38.2664 20.7289C38.1741 20.725 38.0833 20.7523 38.0086 20.8064C37.9797 20.8224 37.9552 20.8453 37.9374 20.8731C37.9195 20.9008 37.9088 20.9325 37.9062 20.9654C37.911 21.0231 37.9281 21.0792 37.9564 21.1298C37.9846 21.1804 38.0233 21.2245 38.07 21.259C38.1779 21.3616 38.3182 21.4236 38.4669 21.4344Z" fill="black"/>
<path d="M53.1106 20.235C53.0979 20.2662 53.0923 20.2998 53.0941 20.3333C53.096 20.3669 53.1052 20.3997 53.1213 20.4293C53.1373 20.459 53.1597 20.4847 53.1869 20.5046C53.214 20.5246 53.2453 20.5384 53.2784 20.5449C53.4681 20.612 53.6505 20.6981 53.8227 20.8018C53.9619 20.8861 54.0315 21.0819 54.0315 21.3891V23.995H53.3194V21.2667C53.3174 21.0904 53.2538 20.9202 53.1395 20.7854C53.0252 20.6507 52.8674 20.5599 52.6932 20.5286L51.7232 20.3777C51.4981 20.341 51.3631 20.4022 51.314 20.5572C51.3013 20.5883 51.2956 20.6219 51.2975 20.6555C51.2993 20.6891 51.3086 20.7219 51.3246 20.7515C51.3406 20.7811 51.363 20.8068 51.3902 20.8268C51.4174 20.8468 51.4486 20.8606 51.4818 20.8671C51.6727 20.9276 51.8555 21.0111 52.0261 21.1159C52.1652 21.2056 52.2348 21.4054 52.2348 21.7194V29.2516C52.2352 29.2984 52.2453 29.3446 52.2643 29.3873C52.2834 29.4301 52.311 29.4685 52.3455 29.5002C52.38 29.5319 52.4207 29.5563 52.465 29.5717C52.5093 29.5872 52.5563 29.5934 52.6031 29.5901C52.703 29.5995 52.8036 29.5852 52.8968 29.5483C52.99 29.5114 53.0731 29.4531 53.1393 29.378C53.2582 29.2258 53.3191 29.0365 53.3112 28.8438V24.623H54.0233V29.5575C54.0243 29.5998 54.0339 29.6415 54.0514 29.68C54.069 29.7186 54.0943 29.7532 54.1256 29.7818C54.1593 29.8179 54.2007 29.8462 54.2467 29.8645C54.2927 29.8828 54.3422 29.8908 54.3916 29.8878C54.4923 29.8977 54.594 29.884 54.6885 29.8479C54.783 29.8118 54.8677 29.7543 54.9359 29.6798C55.0492 29.5236 55.1068 29.3341 55.0997 29.1415V20.9568C55.0995 20.7803 55.0389 20.609 54.9278 20.4715C54.8134 20.3378 54.6555 20.2483 54.4817 20.2187L53.5035 20.0515C53.2866 20.0189 53.1557 20.08 53.1106 20.235Z" fill="black"/>
<path d="M24.331 29.0551H20.2834C20.1975 29.0551 20.1443 29.0551 20.1238 29.0225C20.0976 28.9593 20.0877 28.8906 20.0951 28.8227V27.5625C20.0954 27.3849 20.0321 27.213 19.9166 27.0777C19.8011 26.9424 19.6409 26.8526 19.4649 26.8244L18.6873 26.6817C18.4622 26.6491 18.3271 26.7061 18.278 26.8652C18.2653 26.8958 18.2593 26.9288 18.2607 26.9619C18.262 26.9951 18.2706 27.0275 18.2858 27.057C18.301 27.0865 18.3224 27.1123 18.3486 27.1327C18.3749 27.1531 18.4052 27.1676 18.4376 27.1751C18.6011 27.2142 18.7518 27.2942 18.8755 27.4076C18.9716 27.5919 19.0101 27.8007 18.986 28.0071V28.8227C18.9835 29.0425 19.0672 29.2547 19.2193 29.414C19.2957 29.4961 19.3891 29.5609 19.4929 29.6038C19.5967 29.6467 19.7086 29.6668 19.8209 29.6627H24.3228C24.4043 29.6627 24.4823 29.6305 24.5399 29.5732C24.5975 29.5158 24.6298 29.438 24.6298 29.3569C24.6278 29.2782 24.5958 29.2032 24.5403 29.1472C24.4848 29.0911 24.41 29.0582 24.331 29.0551Z" fill="black"/>
<path d="M15.3966 26.2947C15.3971 26.2534 15.3895 26.2125 15.3742 26.1742C15.3589 26.1359 15.3361 26.1009 15.3072 26.0714C15.2783 26.0419 15.2439 26.0183 15.2059 26.002C15.1678 25.9857 15.127 25.9771 15.0856 25.9766H6.44598C6.39672 25.986 6.35042 26.0069 6.31093 26.0377C6.24545 26.0744 6.2168 26.1152 6.2168 26.1601C6.22093 26.2195 6.2381 26.2774 6.26709 26.3295C6.29608 26.3817 6.33619 26.4268 6.3846 26.4619C6.47254 26.5477 6.58902 26.5985 6.71201 26.6046H10.4363V29.6672C10.4394 29.7517 10.4745 29.8318 10.5345 29.8915C10.5677 29.9262 10.6078 29.9535 10.6522 29.9718C10.6966 29.99 10.7444 29.9988 10.7924 29.9975C10.8933 30.0057 10.9948 29.9908 11.0891 29.9541C11.1834 29.9173 11.2681 29.8597 11.3367 29.7855C11.4571 29.6338 11.5194 29.4445 11.5127 29.2513V26.6046H15.0856C15.1681 26.6046 15.2472 26.5719 15.3055 26.5138C15.3638 26.4557 15.3966 26.3769 15.3966 26.2947Z" fill="black"/>
<path d="M35.4263 25.0391H26.6803C26.6308 25.0478 26.5844 25.0689 26.5452 25.1002C26.4798 25.1383 26.447 25.175 26.447 25.2103C26.4498 25.2723 26.4668 25.3327 26.4966 25.3871C26.5264 25.4415 26.5682 25.4885 26.6189 25.5244C26.705 25.6111 26.82 25.6634 26.9422 25.6712H30.7811V27.7591C30.7847 27.8411 30.8199 27.9185 30.8794 27.9753C30.9148 28.0103 30.9571 28.0377 31.0035 28.0559C31.0499 28.0742 31.0996 28.0828 31.1495 28.0813C31.2492 28.0897 31.3496 28.0749 31.4426 28.0381C31.5356 28.0013 31.6188 27.9435 31.6856 27.8692C31.8045 27.717 31.8654 27.5277 31.8575 27.335V25.6712H35.4263C35.5042 25.6623 35.5761 25.6252 35.6283 25.5669C35.6806 25.5087 35.7094 25.4332 35.7094 25.3551C35.7094 25.277 35.6806 25.2016 35.6283 25.1433C35.5761 25.085 35.5042 25.0479 35.4263 25.0391Z" fill="black"/>
<path d="M41.7989 22.001H37.0637C37.0155 22.0071 36.97 22.0269 36.9328 22.0581C36.8714 22.0989 36.8386 22.1356 36.8386 22.1682C36.8421 22.2294 36.8593 22.289 36.889 22.3427C36.9188 22.3964 36.9603 22.4426 37.0105 22.4781C37.1058 22.5648 37.2294 22.6141 37.3584 22.6168H41.803C41.8844 22.6168 41.9625 22.5845 42.0201 22.5272C42.0776 22.4698 42.11 22.392 42.11 22.3109C42.11 22.2287 42.0772 22.1499 42.0189 22.0918C41.9605 22.0336 41.8814 22.001 41.7989 22.001Z" fill="black"/>
<path d="M51.6534 26.2301C51.5649 26.0315 51.4431 25.8495 51.2932 25.6917L49.5497 23.9259C49.685 23.6417 49.8012 23.3488 49.8976 23.0492C49.9894 22.7739 50.0646 22.4933 50.1227 22.2091H51.3505C51.4341 22.2091 51.5142 22.176 51.5733 22.1171C51.6324 22.0582 51.6656 21.9783 51.6656 21.8951C51.6656 21.8118 51.6324 21.7319 51.5733 21.673C51.5142 21.6141 51.4341 21.5811 51.3505 21.5811H47.4338C47.3839 21.5901 47.3365 21.6096 47.2947 21.6381C47.2333 21.6789 47.2006 21.7197 47.2006 21.7605C47.2029 21.8221 47.2192 21.8823 47.2483 21.9367C47.2774 21.9911 47.3184 22.0382 47.3684 22.0745C47.4589 22.1553 47.5744 22.2028 47.6958 22.2091H49.0013C48.8277 23.0047 48.5526 23.7749 48.1828 24.501C47.8122 25.2956 47.3193 26.0276 46.7217 26.6705C46.6978 26.6908 46.6781 26.7157 46.6641 26.7437C46.65 26.7717 46.6418 26.8023 46.6399 26.8336C46.6345 26.8892 46.6474 26.945 46.6767 26.9927C46.761 27.0678 46.8706 27.1085 46.9837 27.1068C47.0945 27.1139 47.2051 27.0899 47.3029 27.0375C47.7099 26.7313 48.0709 26.3688 48.3752 25.9609C48.6911 25.5543 48.9653 25.1171 49.1937 24.6559L50.9781 26.9193C51.0995 27.0192 51.2548 27.0688 51.4119 27.0579C51.4556 27.0647 51.5003 27.0617 51.5427 27.049C51.585 27.0362 51.624 27.0142 51.6566 26.9844C51.6892 26.9546 51.7147 26.9179 51.7312 26.877C51.7476 26.836 51.7546 26.792 51.7516 26.748C51.7637 26.5698 51.7298 26.3915 51.6534 26.2301Z" fill="black"/>
<path d="M64.5245 29.0551H60.3909C60.3356 29.063 60.2791 29.0515 60.2313 29.0225C60.2051 28.9593 60.1953 28.8906 60.2027 28.8227V27.5625C60.2033 27.3871 60.1425 27.2169 60.0308 27.0813C59.9193 26.9475 59.7644 26.8566 59.5929 26.8244L58.8194 26.6817C58.5902 26.6491 58.4592 26.7061 58.4101 26.8652C58.3966 26.8955 58.3899 26.9283 58.3907 26.9615C58.3914 26.9946 58.3995 27.0271 58.4144 27.0568C58.4293 27.0864 58.4505 27.1124 58.4767 27.1328C58.5028 27.1533 58.5332 27.1678 58.5656 27.1751C58.7291 27.2142 58.8798 27.2942 59.0035 27.4076C59.0996 27.5919 59.1381 27.8007 59.114 28.0071V28.8227C59.1115 29.0425 59.1952 29.2547 59.3473 29.414C59.4244 29.4964 59.5184 29.5613 59.6229 29.6043C59.7274 29.6472 59.84 29.6671 59.953 29.6627H64.5245C64.6059 29.6627 64.684 29.6305 64.7416 29.5732C64.7991 29.5158 64.8315 29.438 64.8315 29.3569C64.8294 29.2768 64.7962 29.2007 64.739 29.1444C64.6818 29.0881 64.6049 29.0561 64.5245 29.0551Z" fill="black"/>
<path d="M34.096 29.0551H29.9419C29.8642 29.0551 29.815 29.0551 29.7946 29.0225C29.7659 28.96 29.7546 28.891 29.7618 28.8227V27.5625C29.7618 27.3872 29.7011 27.2173 29.5899 27.0813C29.4795 26.947 29.3239 26.8572 29.152 26.8285L28.3662 26.6817C28.1411 26.6491 28.0061 26.7061 27.957 26.8652C27.9443 26.8967 27.9388 26.9305 27.9409 26.9644C27.9429 26.9982 27.9526 27.0312 27.969 27.0609C27.9855 27.0905 28.0084 27.1162 28.036 27.1359C28.0637 27.1557 28.0954 27.1691 28.1289 27.1751C28.292 27.2152 28.4425 27.295 28.5668 27.4076C28.6629 27.5919 28.7014 27.8007 28.6773 28.0071V28.8227C28.6739 29.0412 28.7544 29.2527 28.9024 29.414C28.9777 29.4965 29.0702 29.5615 29.1734 29.6044C29.2767 29.6474 29.3881 29.6673 29.4999 29.6627H34.0878C34.1692 29.6627 34.2472 29.6305 34.3048 29.5732C34.3624 29.5158 34.3947 29.438 34.3947 29.3569C34.3927 29.2782 34.3607 29.2032 34.3052 29.1472C34.2497 29.0911 34.1749 29.0582 34.096 29.0551Z" fill="black"/>
<path d="M24.0689 23.2568V20.9568C24.0673 20.7798 24.0053 20.6087 23.893 20.4715C23.7786 20.3378 23.6207 20.2483 23.4469 20.2187L22.4728 20.0515C22.2477 20.0189 22.1127 20.08 22.0635 20.235C22.05 20.2655 22.0435 20.2987 22.0445 20.3321C22.0455 20.3654 22.054 20.3981 22.0693 20.4278C22.0846 20.4575 22.1063 20.4835 22.1329 20.5037C22.1596 20.524 22.1904 20.5381 22.2232 20.5449C22.4153 20.6142 22.6003 20.7016 22.7757 20.8059C22.9107 20.8956 22.9803 21.0955 22.9803 21.4095V27.3349C22.9809 27.4223 23.0162 27.5059 23.0785 27.5674C23.1118 27.6033 23.1524 27.6317 23.1975 27.6507C23.2427 27.6697 23.2914 27.6788 23.3405 27.6775C23.4417 27.6851 23.5434 27.6696 23.6377 27.6321C23.732 27.5947 23.8165 27.5363 23.8848 27.4613C24.0042 27.3108 24.0665 27.123 24.0608 26.9312V23.8849H25.7674C25.851 23.8849 25.9311 23.8518 25.9902 23.7929C26.0493 23.734 26.0825 23.6541 26.0825 23.5709C26.0825 23.4876 26.0493 23.4077 25.9902 23.3488C25.9311 23.2899 25.851 23.2568 25.7674 23.2568H24.0689Z" fill="black"/>
<path d="M45.8258 23.995H44.1233V20.9568C44.1237 20.7795 44.0614 20.6076 43.9473 20.4715C43.8346 20.3378 43.678 20.2482 43.5053 20.2187L42.5272 20.0515C42.3021 20.0189 42.1711 20.08 42.1179 20.235C42.1044 20.2655 42.0979 20.2987 42.0989 20.3321C42.0999 20.3654 42.1083 20.3981 42.1236 20.4278C42.1389 20.4575 42.1607 20.4835 42.1873 20.5037C42.2139 20.524 42.2447 20.5381 42.2775 20.5449C42.4697 20.6122 42.6548 20.6982 42.83 20.8018C42.9651 20.8875 43.0347 21.0873 43.0347 21.4013V26.662C42.6 26.8148 42.1519 26.9267 41.6964 26.9964C41.1547 27.0825 40.6077 27.1316 40.0593 27.1432V26.0462C40.3406 25.977 40.6096 25.8656 40.8574 25.7159C41.0588 25.5833 41.225 25.4039 41.3416 25.1933C41.4583 24.9826 41.5219 24.7469 41.5272 24.5064C41.5324 24.2658 41.479 24.0276 41.3716 23.8121C41.2643 23.5966 41.106 23.4103 40.9106 23.2691C40.49 22.983 39.9915 22.8321 39.4822 22.8368C38.939 22.8078 38.405 22.9857 37.9884 23.3343C37.8181 23.471 37.6802 23.6435 37.5846 23.8395C37.4891 24.0355 37.4383 24.2501 37.4359 24.468C37.4288 24.7071 37.4816 24.9441 37.5895 25.1577C37.6974 25.3713 37.857 25.5547 38.0539 25.6915C38.3286 25.8957 38.6463 26.0352 38.9829 26.0993V27.1718H36.7483C36.7011 27.1814 36.6565 27.2008 36.6174 27.2289C36.5601 27.2697 36.5273 27.3064 36.5273 27.3431C36.5308 27.4043 36.548 27.4639 36.5778 27.5176C36.6075 27.5713 36.649 27.6175 36.6992 27.653C36.7921 27.7353 36.9107 27.7828 37.0348 27.7876H39.6378C40.3224 27.79 41.0064 27.7423 41.6841 27.6448C42.1515 27.5845 42.612 27.4793 43.0592 27.3308V29.6105C43.0653 29.6915 43.1018 29.7672 43.1615 29.8225C43.1942 29.8578 43.2342 29.8856 43.2787 29.9039C43.3232 29.9222 43.3712 29.9306 43.4194 29.9286C43.5201 29.9385 43.6217 29.9248 43.7162 29.8887C43.8107 29.8526 43.8954 29.795 43.9637 29.7206C44.085 29.5678 44.1474 29.3769 44.1397 29.1823V24.623H45.8422C45.9258 24.623 46.0059 24.5899 46.065 24.531C46.1241 24.4721 46.1573 24.3923 46.1573 24.309C46.1573 24.2257 46.1241 24.1458 46.065 24.0869C46.0059 24.0281 45.9258 23.995 45.8422 23.995H45.8258ZM38.4059 24.4517C38.3985 24.3116 38.4217 24.1716 38.4741 24.0414C38.5265 23.9112 38.6066 23.7939 38.709 23.6977C38.8115 23.6015 38.9337 23.5286 39.0672 23.4842C39.2007 23.4397 39.3423 23.4248 39.4822 23.4404C39.7655 23.4281 40.0435 23.5195 40.2639 23.6973C40.3689 23.7942 40.4507 23.9135 40.5031 24.0462C40.5555 24.1789 40.5773 24.3217 40.5668 24.464C40.5857 24.6227 40.5628 24.7837 40.5003 24.931C40.4379 25.0782 40.3381 25.2068 40.2107 25.304C39.9981 25.4484 39.7477 25.5278 39.4904 25.5324C39.213 25.5378 38.9429 25.4437 38.7292 25.2673C38.6148 25.1662 38.526 25.0397 38.4698 24.898C38.4136 24.7563 38.3917 24.6034 38.4059 24.4517Z" fill="black"/>
<path d="M65.879 23.2568H64.1765V20.9568C64.1769 20.7795 64.1146 20.6076 64.0005 20.4715C63.8883 20.3372 63.7315 20.2475 63.5585 20.2187L62.5804 20.0515C62.3553 20.0189 62.2243 20.08 62.1711 20.235C62.1576 20.2653 62.1509 20.2981 62.1517 20.3313C62.1524 20.3644 62.1605 20.3969 62.1754 20.4266C62.1902 20.4562 62.2115 20.4822 62.2377 20.5026C62.2638 20.5231 62.2942 20.5376 62.3266 20.5449C62.5203 20.6135 62.7067 20.7009 62.8832 20.8059C63.0183 20.8956 63.0878 21.0955 63.0878 21.4095V27.3349C63.088 27.3786 63.0971 27.4218 63.1147 27.4617C63.1323 27.5017 63.158 27.5377 63.1902 27.5674C63.2218 27.6031 63.2609 27.6314 63.3048 27.6504C63.3486 27.6695 63.3961 27.6787 63.4439 27.6775C63.5458 27.6857 63.6483 27.6705 63.7434 27.6331C63.8385 27.5956 63.9236 27.5368 63.9923 27.4613C64.1103 27.3102 64.1711 27.1225 64.1642 26.9312V23.8849H65.8667C65.9503 23.8849 66.0305 23.8518 66.0896 23.7929C66.1487 23.734 66.1819 23.6541 66.1819 23.5709C66.1819 23.4876 66.1487 23.4077 66.0896 23.3488C66.0305 23.2899 65.9503 23.2568 65.8667 23.2568H65.879Z" fill="black"/>
<path d="M33.5842 20.9413C33.5158 20.8719 33.4343 20.8166 33.3444 20.7788C33.2545 20.741 33.1579 20.7214 33.0603 20.7211H29.2296C29.0007 20.6894 28.7739 20.6445 28.5502 20.5865C28.3251 20.5498 28.1901 20.611 28.1409 20.766C28.1293 20.8334 28.1393 20.9027 28.1694 20.9642C28.1995 21.0257 28.2483 21.0762 28.3087 21.1085C28.3851 21.1484 28.4543 21.2008 28.5134 21.2635C28.6141 21.4269 28.6559 21.6196 28.6321 21.8099V22.1933V23.2373C28.6287 23.4577 28.7108 23.671 28.8612 23.8327C28.9374 23.9165 29.0312 23.9826 29.1358 24.0263C29.2405 24.07 29.3536 24.0902 29.467 24.0855H33.0603C33.1583 24.085 33.2552 24.0651 33.3454 24.027C33.4356 23.9889 33.5173 23.9333 33.5858 23.8636C33.6544 23.7938 33.7083 23.7111 33.7445 23.6204C33.7808 23.5297 33.7986 23.4328 33.797 23.3351V21.4674C33.7983 21.271 33.7218 21.0819 33.5842 20.9413ZM32.7206 23.1965C32.7214 23.2292 32.7153 23.2618 32.7026 23.292C32.6899 23.3222 32.6709 23.3494 32.6469 23.3718C32.6011 23.4172 32.5396 23.4435 32.4751 23.4453H29.8926C29.8107 23.4453 29.7616 23.4452 29.7412 23.4085C29.7158 23.3523 29.7059 23.2904 29.7125 23.2291V21.5979C29.7112 21.5654 29.7167 21.5331 29.7287 21.5029C29.7406 21.4727 29.7588 21.4453 29.7821 21.4225C29.805 21.3992 29.8324 21.3807 29.8626 21.3681C29.8929 21.3555 29.9253 21.349 29.9581 21.3491H32.7206V23.1965Z" fill="black"/>
<path d="M59.6058 25.1455H58.6768C58.6274 25.1521 58.5773 25.1389 58.5376 25.1088C58.511 25.0501 58.5011 24.9852 58.509 24.9212V22.3194C58.5088 22.2861 58.5152 22.2531 58.5279 22.2224C58.5405 22.1916 58.5591 22.1636 58.5827 22.14C58.605 22.1173 58.6318 22.0995 58.6614 22.0875C58.691 22.0756 58.7227 22.0699 58.7545 22.0706H61.5212C61.604 22.0696 61.6832 22.036 61.7414 21.9772C61.7996 21.9185 61.8322 21.8392 61.8322 21.7566C61.8322 21.6744 61.7994 21.5956 61.7411 21.5375C61.6828 21.4793 61.6037 21.4467 61.5212 21.4467H61.4966H58.0261C57.7972 21.4146 57.5704 21.3697 57.3467 21.3121C57.1216 21.2754 56.9906 21.3366 56.9374 21.4915C56.9252 21.5591 56.9343 21.6288 56.9637 21.6909C56.993 21.753 57.0411 21.8045 57.1011 21.8382C57.179 21.8739 57.2487 21.9253 57.3058 21.9891C57.3902 22.1167 57.4292 22.269 57.4162 22.4213V24.9294C57.4137 25.1497 57.4957 25.3626 57.6454 25.5248C57.7206 25.6063 57.8125 25.6707 57.9149 25.7136C58.0174 25.7565 58.1278 25.777 58.2389 25.7735H59.4667C60.6899 25.7365 61.9033 25.5418 63.0764 25.1944V24.5175C61.9532 24.8818 60.7858 25.0931 59.6058 25.1455Z" fill="black"/>
</svg>
