<svg width="98" height="26" viewBox="0 0 98 26" fill="none" xmlns="http://www.w3.org/2000/svg">
<path d="M0 25.0261H18.7479L24.9973 18.7695L0 25.0261Z" fill="url(#paint0_linear_391_1891)"/>
<path d="M0 0V6.25657L18.7479 0H0Z" fill="url(#paint1_linear_391_1891)"/>
<path d="M16.6653 14.5982L24.9973 6.25657L18.7479 0L0 6.25657L16.6653 14.5982Z" fill="url(#paint2_linear_391_1891)"/>
<path d="M0 6.25684V25.0265L24.9973 18.77L0 6.25684Z" fill="url(#paint3_linear_391_1891)"/>
<path style="mix-blend-mode:multiply" d="M18.7479 0L0 6.25657L16.6653 14.5982L24.9973 6.25657L18.7479 0Z" fill="url(#paint4_linear_391_1891)"/>
<path d="M40.3079 11.9937V4.99707H38.5543V7.14426H32.444V4.99707H30.6904V11.0065L31.6738 11.991L40.3079 11.9937ZM32.444 8.67025H38.5543V10.4839H32.444V8.67025Z" fill="#575153"/>
<path d="M28.624 14.7965H34.6224V18.6925H36.376V14.7965H42.3124V13.2705H28.624V14.7965Z" fill="#575153"/>
<path d="M54.599 4.99902H52.8604V15.2259H54.599V10.0942H56.6183V8.56822H54.599V4.99902Z" fill="#575153"/>
<path d="M47.026 13.9668H45.2725V17.7089L46.2558 18.6933H54.9061V17.1673H47.026V13.9668Z" fill="#575153"/>
<path d="M69.4011 4.99902H67.6638V11.0139H62.4895V8.33865H60.736V11.0139H57.6309V12.5236H67.6638V13.2866H69.4011V9.77146H71.4217V8.24682H69.4011V4.99902Z" fill="#575153"/>
<path d="M74.2676 13.793V15.319H82.6211V18.6937H84.3747V14.7774L83.3913 13.793H74.2676Z" fill="#575153"/>
<path d="M97.9614 4.99902H96.2227V18.6924H97.9614V4.99902Z" fill="#575153"/>
<path d="M64.3924 10.3692H66.1297V6.4907L65.1464 5.50488H58.4911V7.01602H64.3924V10.3692Z" fill="#575153"/>
<path d="M64.5127 13.3691C61.2754 13.3691 59.3263 14.3388 59.3223 16.178C59.3182 18.0173 61.2633 19.0005 64.5019 19.0059C67.7406 19.0113 69.6883 18.0362 69.6924 16.1983C69.6964 14.3604 67.7514 13.3759 64.5127 13.3691ZM64.5033 17.5042C62.3667 17.5042 61.0825 17.0423 61.0852 16.1834C61.0879 15.3246 62.3734 14.8681 64.5114 14.8722C66.6493 14.8762 67.9321 15.334 67.9294 16.1929C67.9267 17.0518 66.6426 17.5069 64.5033 17.5042Z" fill="#575153"/>
<path d="M79.4988 11.259H82.6377V13.3239H84.375V4.99707H82.6377V6.60814H79.4368C78.7529 5.76277 77.6833 5.2469 76.4194 5.2469C74.214 5.2469 72.5967 6.82016 72.5967 8.97275C72.5967 11.1253 74.214 12.6946 76.4194 12.6946C77.7224 12.6946 78.819 12.1544 79.4988 11.259ZM82.6377 8.08822V9.77896H80.1638C80.2756 9.2203 80.2696 8.64444 80.1463 8.08822H82.6377ZM74.33 8.97275C74.33 7.71685 75.2148 6.7972 76.4194 6.7972C77.6239 6.7972 78.5047 7.71685 78.5047 8.97275C78.5047 10.2287 77.6199 11.147 76.414 11.147C75.2081 11.147 74.33 10.2287 74.33 8.97275Z" fill="#575153"/>
<path d="M91.4046 5.28516H89.5661V10.7679L85.7178 15.1042L87.0397 16.2804L90.482 12.4006L93.9243 16.2804L95.2475 15.1042L91.4046 10.7747V5.28516Z" fill="#575153"/>
<path d="M51.2317 13.0623L52.3809 11.7159L48.4989 8.39656V5.28516H46.6604V8.39656L42.7783 11.7159L43.9262 13.0623L47.5803 9.93876L51.2317 13.0623Z" fill="#575153"/>
<path d="M29.9961 21.5098H32.1961L32.6965 22.0121V22.9952L32.4969 23.2019L32.8517 23.5624V24.4807L32.3121 25.0209H29.9961V21.5098ZM31.8454 22.979L32.0261 22.7981V22.2579L31.8508 22.0824H30.6624V22.9804L31.8454 22.979ZM31.9654 24.4497L32.1813 24.2336V23.742L31.9654 23.526H30.6624V24.4497H31.9654Z" fill="#575153"/>
<path d="M33.4033 24.4186V21.5098H34.0845V24.1836L34.3408 24.4389H35.3228L35.5777 24.1836V21.5098H36.2602V24.4186L35.6586 25.0209H34.0049L33.4033 24.4186Z" fill="#575153"/>
<path d="M36.8857 24.4796V23.9772H37.5602V24.2743L37.7247 24.4391H38.762L38.9333 24.2689V23.6869L38.7674 23.5208H37.4401L36.9006 22.9806V22.0529L37.4401 21.5127H39.0224L39.5619 22.0529V22.5525H38.8875V22.2514L38.7216 22.0866H37.7301L37.5642 22.2514V22.7686L37.7301 22.9334H39.0574L39.597 23.4735V24.4607L39.0466 25.013H37.428L36.8857 24.4796Z" fill="#575153"/>
<path d="M41.0855 21.5098H41.7073L42.9901 25.0209H42.2981L42.0122 24.243H40.7793L40.4947 25.0209H39.8027L41.0855 21.5098ZM41.8625 23.6813L41.3958 22.347H41.3863L40.9358 23.6813H41.8625Z" fill="#575153"/>
<path d="M43.3906 21.5098H44.0017L45.565 23.8919H45.5744V21.5098H46.2313V25.0209H45.6203L44.057 22.6428H44.0462V25.0209H43.3906V21.5098Z" fill="#575153"/>
<path d="M48.3467 21.5098H48.978L50.0206 23.7771H50.0301L51.0768 21.5098H51.7081V25.0209H51.0525V22.8845H51.0417L50.2324 24.5293H49.8142L49.013 22.8845H49.0022V25.0209H48.3467V21.5098Z" fill="#575153"/>
<path d="M52.4092 21.5098H54.9451V22.0864H53.0917V22.9736H54.7994V23.5408H53.0917V24.4429H54.9451V25.0195H52.4092V21.5098Z" fill="#575153"/>
<path d="M56.2928 22.0864H55.2461V21.5098H58.0221V22.0864H56.9753V25.0209H56.2928V22.0864Z" fill="#575153"/>
<path d="M61.2284 23.8573V25.0214H60.5472V24.0126L60.2464 23.6763H59.1552V25.0268H58.4727V21.5156H60.6727L61.2122 22.0558V23.1186L60.8709 23.4657L61.2284 23.8573ZM59.1552 23.1145H60.3624L60.5378 22.939V22.257L60.3624 22.0815H59.1552V23.1145Z" fill="#575153"/>
<path d="M61.8555 24.4429V22.0864L62.4314 21.5098H64.2349L64.8122 22.0864V24.4429L64.2349 25.0195H62.4314L61.8555 24.4429ZM63.8788 24.4429L64.1337 24.1877V22.3511L63.8788 22.0959H62.7997L62.5434 22.3511V24.1877L62.7997 24.4429H63.8788Z" fill="#575153"/>
<path d="M65.4619 21.5098H67.6619L68.2015 22.0499V23.2788L67.6619 23.8258H66.1444V25.0195H65.4619V21.5098ZM67.3503 23.2545L67.5257 23.079V22.2566L67.3503 22.081H66.1431V23.2545H67.3503Z" fill="#575153"/>
<path d="M68.6992 24.4429V22.0864L69.2752 21.5098H71.0854L71.6613 22.0864V24.4429L71.0854 25.0209H69.2752L68.6992 24.4429ZM70.7225 24.4429L70.9788 24.1877V22.3511L70.7225 22.0959H69.6434L69.3871 22.3511V24.1877L69.6434 24.4429H70.7225Z" fill="#575153"/>
<path d="M72.3076 21.5098H72.9888V24.4429H74.7423V25.0195H72.3076V21.5098Z" fill="#575153"/>
<path d="M75.1943 21.5098H75.8688V25.0209H75.1943V21.5098Z" fill="#575153"/>
<path d="M77.3978 22.0864H76.3457V21.5098H79.1217V22.0864H78.0736V25.0209H77.3978V22.0864Z" fill="#575153"/>
<path d="M80.1089 21.5098H80.7308L82.0136 25.0209H81.3216L81.0356 24.243H79.8028L79.5181 25.0209H78.8262L80.1089 21.5098ZM80.8859 23.6813L80.4192 22.347H80.4097L79.9592 23.6813H80.8859Z" fill="#575153"/>
<path d="M82.416 21.5098H83.0271L84.5904 23.8919H84.5998V21.5098H85.2567V25.0209H84.6457L83.0824 22.6428H83.0716V25.0209H82.416V21.5098Z" fill="#575153"/>
<path d="M87.3193 24.4429V22.0864L87.8967 21.5098H89.6097L90.1763 22.0756V22.6158H89.5018V22.3295L89.2658 22.0945H88.2568L88.0019 22.3497V24.1863L88.2568 24.4429H89.259L89.4951 24.2079V23.9216H90.1695V24.4618L89.603 25.029H87.8899L87.3193 24.4429Z" fill="#575153"/>
<path d="M90.7275 21.5098H91.402V25.0209H90.7275V21.5098Z" fill="#575153"/>
<path d="M92.9369 22.0864H91.8848V21.5098H94.6607V22.0864H93.6113V25.0209H92.9369V22.0864Z" fill="#575153"/>
<path d="M96.0397 23.5867L94.792 21.5098H95.5393L96.3756 22.9493H96.3864L97.2227 21.5098H97.9699L96.7141 23.5867V25.0209H96.0397V23.5867Z" fill="#575153"/>
<defs>
<linearGradient id="paint0_linear_391_1891" x1="0.702761" y1="27.2111" x2="25.3649" y2="21.0099" gradientUnits="userSpaceOnUse">
<stop offset="0.25" stop-color="#0087CC"/>
<stop offset="0.8" stop-color="#662483"/>
</linearGradient>
<linearGradient id="paint1_linear_391_1891" x1="-0.899697" y1="3.42605" x2="17.8309" y2="-2.74197" gradientUnits="userSpaceOnUse">
<stop offset="0.2" stop-color="#E6007E"/>
<stop offset="0.54" stop-color="#A71280"/>
<stop offset="0.9" stop-color="#662483"/>
</linearGradient>
<linearGradient id="paint2_linear_391_1891" x1="0.118701" y1="7.2991" x2="24.9838" y2="7.2991" gradientUnits="userSpaceOnUse">
<stop offset="0.1" stop-color="#ED6EA7"/>
<stop offset="0.21" stop-color="#EC5CA0"/>
<stop offset="0.61" stop-color="#E81A88"/>
<stop offset="0.8" stop-color="#E6007E"/>
</linearGradient>
<linearGradient id="paint3_linear_391_1891" x1="-2.01656" y1="21.5289" x2="14.6163" y2="11.2221" gradientUnits="userSpaceOnUse">
<stop stop-color="#662483"/>
<stop offset="0.5" stop-color="#E6007E"/>
<stop offset="0.58" stop-color="#E60680"/>
<stop offset="0.69" stop-color="#E71786"/>
<stop offset="0.81" stop-color="#E93291"/>
<stop offset="0.94" stop-color="#EC599F"/>
<stop offset="1" stop-color="#ED6EA7"/>
</linearGradient>
<linearGradient id="paint4_linear_391_1891" x1="9.68759" y1="16.0337" x2="11.6017" y2="9.39075" gradientUnits="userSpaceOnUse">
<stop offset="0.15" stop-color="#878787"/>
<stop offset="0.27" stop-color="#878787" stop-opacity="0.92"/>
<stop offset="0.48" stop-color="#878787" stop-opacity="0.71"/>
<stop offset="0.75" stop-color="#878787" stop-opacity="0.36"/>
<stop offset="1" stop-color="#878787" stop-opacity="0"/>
</linearGradient>
</defs>
</svg>
