<svg width="150" height="15" viewBox="0 0 150 15" fill="none" xmlns="http://www.w3.org/2000/svg">
<g clip-path="url(#clip0_391_1080)">
<path d="M8.51774 6.90252H4.92381C5.11965 6.46069 6.47667 3.33085 6.76905 2.6635C7.04472 3.33459 8.33767 6.46255 8.51774 6.90252ZM6.05435 0.591797L0.000732422 14.4654H1.74479L4.32699 8.39225C4.32699 8.39225 8.84447 8.36812 9.08303 8.3737C9.17863 8.60295 11.6123 14.4654 11.6123 14.4654H13.4492L7.60813 0.591797H6.05435Z" fill="#0E1A44"/>
<path d="M27.297 0.59082C27.297 0.59082 22.8463 10.8343 22.515 11.6047C22.1789 10.8343 17.7302 0.59082 17.7302 0.59082H15.5183V14.4644H17.1686V3.23802L22.0964 14.4644H22.9104C22.9104 14.4644 27.1708 4.61264 27.7611 3.25099V14.4644H29.4105V0.59082H27.297Z" fill="#0E1A44"/>
<path d="M64.8113 0.59082V14.4644H74.5888V12.9273H66.4644V8.07108H73.8471V6.53121H66.4644V2.12606H74.2797V0.59083L64.8113 0.59082Z" fill="#0E1A44"/>
<path d="M80.8717 1.45098H83.763C85.2639 1.45098 87.0182 2.16476 87.0182 4.16777C87.0182 6.14389 85.3789 6.84466 83.8447 6.84466H80.6703V1.45097L80.8717 1.45098ZM79.7644 0.660156V14.298H80.6703V7.6364H83.9023C85.8468 7.6364 87.9278 6.72678 87.9278 4.16777C87.9278 1.00266 84.9056 0.660156 83.6043 0.660156H79.7644Z" fill="#0E1A44"/>
<path d="M91.1317 7.53804C91.243 7.27536 93.5533 1.82135 93.5533 1.82135C93.5533 1.82135 93.6573 1.57723 93.739 1.38696C93.9005 1.78329 96.1458 7.28742 96.2497 7.53804H91.1317ZM99.0584 14.2989H100.088L94.3515 0.661133H93.2628L87.3113 14.2989H88.2422C88.2422 14.2989 90.7409 8.43096 90.7892 8.314H96.582C96.6293 8.43096 99.0584 14.2989 99.0584 14.2989Z" fill="#0E1A44"/>
<path d="M101.516 7.47963C101.516 11.7038 104.418 14.6536 108.572 14.6536C110.591 14.6536 112.225 13.898 113.424 12.4018L113.485 12.322L112.733 11.7511L112.673 11.8272C111.529 13.3309 109.75 13.8637 108.572 13.8637C104.953 13.8637 102.426 11.2397 102.426 7.47962C102.426 3.71956 104.953 1.09464 108.572 1.09464C110.063 1.09464 111.419 1.7323 112.292 2.84705L112.356 2.92779L113.109 2.29384L113.044 2.21959C111.939 0.949834 110.437 0.305664 108.572 0.305664C104.418 0.305664 101.516 3.25454 101.516 7.47963Z" fill="#0E1A44"/>
<path d="M117.215 0.660156V14.298H118.122V0.660156H117.215Z" fill="#0E1A44"/>
<path d="M122.91 14.2989V7.63736H129.514V6.84562H122.91V1.45194H130.012V0.661133H122.001V14.2989L122.91 14.2989Z" fill="#0E1A44"/>
<path d="M134.767 14.2989V0.661133H133.857V14.2989H134.767Z" fill="#0E1A44"/>
<path d="M138.01 7.47964C138.01 11.7038 140.91 14.6536 145.064 14.6536C147.088 14.6536 148.72 13.898 149.917 12.4018L149.981 12.322L149.223 11.7511L149.166 11.8273C148.021 13.3309 146.241 13.8637 145.064 13.8637C141.445 13.8637 138.915 11.2397 138.915 7.47962C138.915 3.71956 141.445 1.09464 145.064 1.09464C146.554 1.09464 147.911 1.73231 148.785 2.84705L148.847 2.92502L149.604 2.29384L149.539 2.21959C148.434 0.949834 146.928 0.305664 145.064 0.305664C140.91 0.305664 138.01 3.25454 138.01 7.47964Z" fill="#0E1A44"/>
<path d="M45.4532 7.52884C45.4532 10.9111 43.1847 13.2706 39.9389 13.2706C36.6912 13.2706 34.4217 10.9111 34.4217 7.52884C34.4217 4.15025 36.6912 1.78523 39.9389 1.78523C43.1847 1.78523 45.4532 4.15025 45.4532 7.52884ZM52.3459 6.50782V2.10358H56.8717C59.5468 2.10358 59.8345 3.64345 59.8345 4.30152C59.8345 4.96425 59.5468 6.50782 56.8717 6.50782H52.3459ZM32.7751 7.52884C32.7751 11.8133 35.7184 14.8067 39.9389 14.8067C43.9792 14.8067 46.8445 12.063 47.0849 8.07089H50.7123V14.4642H52.3626V8.07089H56.4513C56.5626 8.25837 60.242 14.4642 60.242 14.4642H62.1308C62.1308 14.4642 58.4441 8.3837 58.1721 7.93537C60.3431 7.56317 61.4997 6.32961 61.4997 4.32844C61.4997 1.84925 59.8197 0.59159 56.5079 0.59159H50.7123V6.53102H47.0441C46.6218 2.78673 43.8196 0.25 39.9389 0.25C35.7184 0.25 32.7751 3.24435 32.7751 7.52884Z" fill="#0E1A44"/>
</g>
<defs>
<clipPath id="clip0_391_1080">
<rect width="150" height="15" fill="white"/>
</clipPath>
</defs>
</svg>
