<svg width="145" height="25" viewBox="0 0 145 25" fill="none" xmlns="http://www.w3.org/2000/svg">
<g clip-path="url(#clip0_391_969)">
<path d="M21.6657 10.7272V8.92177C20.7262 8.5085 19.7084 8.29486 18.6789 8.29486C17.6494 8.29486 16.6316 8.5085 15.6921 8.92177V0H12.1663V3.71615C10.9094 2.82134 9.396 2.34029 7.84326 2.34203C6.77885 2.34557 5.72735 2.57094 4.75834 3.00322C3.78933 3.4355 2.92492 4.06483 2.22231 4.84955C0.771581 6.45881 -0.020311 8.53845 -0.000518381 10.6871C-0.0228664 12.8454 0.773016 14.9349 2.23253 16.5497C2.93514 17.3344 3.79955 17.9637 4.76856 18.396C5.73757 18.8283 6.78907 19.0536 7.85348 19.0572C8.95411 19.0581 10.0407 18.8146 11.0319 18.345C11.3166 19.897 12.0368 21.3403 13.1116 22.5125C13.8096 23.3037 14.6727 23.9383 15.6426 24.3732C16.6124 24.8081 17.6663 25.0332 18.7326 25.0332C19.7989 25.0332 20.8527 24.8081 21.8225 24.3732C22.7924 23.9383 23.6556 23.3037 24.3535 22.5125C24.5221 22.327 24.6857 22.1364 24.839 21.9358L22.284 19.4283C21.9284 20.0572 21.411 20.5837 20.7833 20.955C20.1557 21.3264 19.4397 21.5297 18.707 21.5446C16.3258 21.5446 14.384 19.348 14.384 16.655C14.384 13.9619 16.3258 11.7703 18.707 11.7703C19.4402 11.7832 20.1569 11.9857 20.785 12.3573C21.413 12.7288 21.93 13.2564 22.284 13.8867C21.8951 12.8786 21.6944 11.8101 21.6912 10.7322L21.6657 10.7272ZM7.86881 15.5767C5.48757 15.5767 3.5509 13.3852 3.5509 10.6871C3.5509 7.98897 5.48757 5.80241 7.86881 5.80241C10.25 5.80241 12.1918 7.99398 12.1918 10.6871C12.1918 13.3801 10.25 15.5767 7.86881 15.5767Z" fill="#DC2F34"/>
<path d="M35.1259 4.84955C34.4235 4.06458 33.5591 3.43508 32.59 3.00278C31.621 2.57048 30.5694 2.34525 29.5049 2.34203C27.9539 2.34135 26.4425 2.82235 25.187 3.71615V0H21.6663V10.7272C21.6694 11.8051 21.8702 12.8736 22.259 13.8816C22.6369 14.8621 23.1946 15.7664 23.9044 16.5497C24.6028 17.3401 25.4662 17.974 26.436 18.4084C27.4057 18.8428 28.4593 19.0677 29.5254 19.0677C30.5914 19.0677 31.645 18.8428 32.6148 18.4084C33.5846 17.974 34.4479 17.3401 35.1463 16.5497C36.6025 14.9406 37.3999 12.8592 37.3845 10.7071C37.399 8.54706 36.5939 6.459 35.1259 4.84955ZM29.5049 15.5767C27.1237 15.5767 25.187 13.3852 25.187 10.6871C25.187 7.98897 27.1237 5.80241 29.5049 5.80241C31.8862 5.80241 33.8279 7.99398 33.8279 10.6871C33.8279 13.3801 31.8862 15.5767 29.5049 15.5767Z" fill="#9CA0A3"/>
<path d="M45.6731 17.6826H43.9766V23.3847H45.7242C47.6813 23.3847 48.7901 22.3366 48.7901 20.5111C48.7901 18.6856 47.6762 17.6826 45.6577 17.6826M45.0343 18.46H45.5913C46.9761 18.46 47.6813 19.152 47.6813 20.5111C47.6813 21.8702 46.9557 22.5974 45.5913 22.5974H45.0497L45.0343 18.46Z" fill="#1D1D1B"/>
<path d="M50.8641 20.807H53.2198V19.9996H50.8641V18.485H53.649V17.6826H49.791V23.3847H53.7461V22.5773H50.8641V20.807Z" fill="#1D1D1B"/>
<path d="M57.7986 20.2609L56.9146 19.9299C56.4036 19.7543 55.8926 19.5738 55.8926 19.1074C55.8926 18.641 56.2963 18.4103 56.9452 18.4103C57.4564 18.4083 57.9514 18.5862 58.3403 18.9118L58.8921 18.32C58.362 17.8402 57.6713 17.5673 56.9503 17.5527C55.7086 17.5527 54.8042 18.2197 54.8042 19.1425C54.8042 19.8145 55.2538 20.321 56.1379 20.647L57.027 20.988H57.0525C57.6249 21.2087 58.0388 21.3692 58.0388 21.8556C58.0388 22.3421 57.584 22.6229 56.8533 22.6229C56.2395 22.6114 55.6495 22.3877 55.1874 21.991L54.5742 22.6229V22.648C55.2146 23.1931 56.0362 23.4893 56.8839 23.4805C58.2329 23.4805 59.1732 22.7935 59.1732 21.8105C59.1732 20.8276 58.4629 20.4865 57.8446 20.2558" fill="#1D1D1B"/>
<path d="M61.1815 17.6826H60.1084V23.3897H61.1815V17.6826Z" fill="#1D1D1B"/>
<path d="M65.0961 21.1082H66.3684V22.3921C66.076 22.5748 65.7338 22.6657 65.3873 22.6529C64.115 22.6529 63.3842 21.8755 63.3842 20.5215C63.3842 19.1674 64.1507 18.4101 65.3413 18.4101C65.5825 18.4036 65.8225 18.4447 66.0472 18.5308C66.2719 18.6169 66.4767 18.7464 66.6495 18.9116L67.2167 18.3249C66.7078 17.834 66.0242 17.557 65.3107 17.5526C64.9037 17.5294 64.4965 17.5917 64.116 17.7353C63.7356 17.8789 63.3907 18.1005 63.1044 18.3853C62.8181 18.6701 62.597 19.0115 62.4558 19.3868C62.3146 19.762 62.2566 20.1625 62.2856 20.5616C62.2582 20.9546 62.3172 21.3489 62.4584 21.7177C62.5996 22.0865 62.8198 22.4212 63.1041 22.6993C63.3885 22.9775 63.7303 23.1924 64.1066 23.3298C64.4828 23.4671 64.8847 23.5236 65.2851 23.4954C66.025 23.5146 66.7483 23.2786 67.3291 22.8284V20.3209H65.0756L65.0961 21.1082Z" fill="#1D1D1B"/>
<path d="M72.3364 20.3406C72.3364 20.8421 72.3875 21.3988 72.4335 21.8902C72.4335 21.9905 72.4437 22.0858 72.4642 22.1761L71.805 21.0076L69.6741 17.6977H68.5908V23.3847H69.6128V20.6967C69.6128 20.1952 69.5617 19.6937 69.5157 19.1921L69.4851 18.8662L70.1391 20.0196L72.27 23.3496H73.3584V17.6826H72.3364V20.3406Z" fill="#1D1D1B"/>
<path d="M81.6471 22.0662C81.4644 22.255 81.2439 22.4046 80.9994 22.5055C80.7549 22.6065 80.4918 22.6567 80.2266 22.653C79.1024 22.653 78.4023 21.8356 78.4023 20.5216C78.4023 19.2077 79.1279 18.4103 80.2521 18.4103C80.7153 18.412 81.1594 18.5921 81.4887 18.9118L82.061 18.325C81.5757 17.8425 80.9173 17.5653 80.2266 17.5527C79.8276 17.5425 79.4309 17.6145 79.062 17.764C78.6931 17.9135 78.3603 18.1373 78.0849 18.4208C77.8095 18.7043 77.5977 19.0413 77.4631 19.41C77.3286 19.7788 77.2743 20.1711 77.3037 20.5617C77.3037 22.317 78.4636 23.4955 80.1908 23.4955C80.5671 23.5042 80.941 23.4355 81.2887 23.2939C81.6363 23.1522 81.9498 22.9407 82.2092 22.6731L81.6727 22.0662H81.6471Z" fill="#1D1D1B"/>
<path d="M85.4635 17.5527C83.7466 17.5527 82.6377 18.7062 82.6377 20.4916C82.6377 22.2769 83.7466 23.4655 85.4635 23.4655C87.1804 23.4655 88.2944 22.2719 88.2944 20.4916C88.2944 18.7112 87.1804 17.5527 85.4635 17.5527ZM87.1958 20.4916C87.1958 21.7904 86.5161 22.633 85.4635 22.633C84.4108 22.633 83.7363 21.7904 83.7363 20.4916C83.7363 19.1927 84.3955 18.3902 85.4635 18.3902C86.5315 18.3902 87.1958 19.1927 87.1958 20.4916Z" fill="#1D1D1B"/>
<path d="M93.0782 20.9925C93.0782 22.1109 92.6285 22.6525 91.7036 22.6525C90.7787 22.6525 90.3495 22.1109 90.3495 20.9925V17.6826H89.2764V20.9324C89.2764 22.6275 90.094 23.485 91.7036 23.485C93.3132 23.485 94.1155 22.6275 94.1155 20.9324V17.6826H93.0935L93.0782 20.9925Z" fill="#1D1D1B"/>
<path d="M99.1841 20.3406C99.1841 20.8421 99.2352 21.3988 99.2812 21.8902C99.2812 21.9905 99.2812 22.0858 99.3067 22.1761L98.6526 21.0076L96.5218 17.6977H95.4385V23.3847H96.4605V20.6967C96.4541 20.1939 96.4217 19.6917 96.3634 19.1921L96.3327 18.8762L96.9919 20.0297L99.133 23.3747H100.216V17.6826H99.1943L99.1841 20.3406Z" fill="#1D1D1B"/>
<path d="M105.628 22.0664C105.447 22.2539 105.229 22.4032 104.988 22.505C104.746 22.6067 104.486 22.6589 104.223 22.6582C103.104 22.6582 102.403 21.8407 102.403 20.5268C102.403 19.2128 103.129 18.4154 104.253 18.4154C104.716 18.4177 105.16 18.5977 105.49 18.9169L106.062 18.3302C105.575 17.8408 104.91 17.5612 104.212 17.5528C103.813 17.542 103.416 17.6134 103.046 17.7626C102.677 17.9118 102.343 18.1354 102.067 18.419C101.791 18.7026 101.579 19.0398 101.444 19.4089C101.309 19.778 101.255 20.1708 101.284 20.5619C101.284 22.3171 102.444 23.4957 104.172 23.4957C104.548 23.5043 104.922 23.4356 105.269 23.294C105.617 23.1523 105.931 22.9409 106.19 22.6732L105.648 22.0664H105.628Z" fill="#1D1D1B"/>
<path d="M108.29 17.6826H107.217V23.3897H108.29V17.6826Z" fill="#1D1D1B"/>
<path d="M110.814 17.6826H109.741V23.3847H113.528V22.5773H110.814V17.6826Z" fill="#1D1D1B"/>
<path d="M121.178 20.3356C121.442 20.2505 121.672 20.0852 121.835 19.8635C121.997 19.6417 122.084 19.375 122.082 19.1019C122.082 18.159 121.305 17.6826 119.777 17.6826H117.733V23.3847H119.91C121.474 23.3847 122.404 22.7578 122.404 21.6997C122.406 21.3602 122.278 21.0323 122.047 20.78C121.815 20.5277 121.496 20.3693 121.152 20.3356M121.351 21.6545C121.351 22.3015 120.84 22.6275 119.818 22.6275H118.827V20.7719H119.818C120.84 20.7719 121.351 21.0577 121.351 21.6545ZM118.796 20.0397V18.4299H119.655C120.59 18.4299 120.988 18.6656 120.988 19.2122C120.988 19.7588 120.595 20.0597 119.665 20.0597L118.796 20.0397Z" fill="#1D1D1B"/>
<path d="M127.172 20.9925C127.172 22.1109 126.722 22.6525 125.797 22.6525C124.872 22.6525 124.448 22.1109 124.448 20.9925V17.6826H123.375V20.9324C123.375 22.6275 124.193 23.485 125.797 23.485C127.402 23.485 128.214 22.6275 128.214 20.9324V17.6826H127.192L127.172 20.9925Z" fill="#1D1D1B"/>
<path d="M132.174 20.2609L131.29 19.9299C130.779 19.7543 130.268 19.5738 130.268 19.1074C130.268 18.641 130.672 18.4103 131.326 18.4103C131.837 18.4091 132.331 18.587 132.721 18.9118L133.273 18.32C132.741 17.8399 132.048 17.567 131.326 17.5527C130.084 17.5527 129.179 18.2197 129.179 19.1425C129.179 19.8145 129.629 20.321 130.508 20.647L131.397 20.988H131.428C132 21.2087 132.414 21.3692 132.414 21.8556C132.414 22.3421 131.959 22.6229 131.229 22.6229C130.602 22.6091 130.002 22.374 129.537 21.961H129.512L128.898 22.5929V22.6179C129.538 23.1619 130.357 23.4579 131.203 23.4504C132.552 23.4504 133.497 22.7634 133.497 21.7804C133.497 20.7975 132.787 20.4564 132.169 20.2258" fill="#1D1D1B"/>
<path d="M137.269 17.6826H136.058L133.906 23.3847H135L135.552 21.7749H137.744L138.285 23.3847H139.425L137.279 17.7027L137.269 17.6826ZM137.478 21.0176H135.807L136.052 20.2955C136.287 19.6084 136.477 19.0216 136.64 18.4549L136.727 18.7408C136.89 19.2423 137.059 19.7889 137.238 20.2955L137.478 21.0176Z" fill="#1D1D1B"/>
<path d="M143.834 17.6826V20.3406C143.834 20.8421 143.886 21.3988 143.932 21.8902C143.932 21.9855 143.932 22.0858 143.962 22.1761L143.303 21.0076L141.172 17.6977H140.089V23.3847H141.111V20.6967C141.111 20.1952 141.06 19.6937 141.014 19.1921L140.983 18.8762L141.637 20.0297L143.768 23.3597H144.856V17.6826H143.834Z" fill="#1D1D1B"/>
<path d="M126.727 9.17773C126.655 9.17773 126.589 9.17773 126.517 9.17773H120.656V10.3262H123.993C123.588 10.8067 123.369 11.4125 123.375 12.0363C123.375 13.7264 124.826 14.9049 126.701 14.9049C128.577 14.9049 130.018 13.7264 130.007 12.0363C130.015 11.4193 129.802 10.8193 129.404 10.3412H132.731V9.19278H126.906C126.834 9.19278 126.768 9.19278 126.701 9.19278M128.526 12.0062C128.524 12.2315 128.475 12.454 128.383 12.6601C128.29 12.8662 128.155 13.0513 127.987 13.2042C127.818 13.357 127.619 13.4742 127.402 13.5485C127.186 13.6228 126.956 13.6526 126.727 13.6361C125.669 13.6361 124.877 13.0042 124.887 11.9912C124.898 10.9781 125.669 10.3613 126.727 10.3613C126.958 10.3427 127.19 10.3709 127.409 10.4441C127.628 10.5173 127.829 10.634 128 10.7869C128.171 10.9398 128.308 11.1256 128.403 11.3328C128.498 11.54 128.548 11.7641 128.551 11.9912" fill="#1D1D1B"/>
<path d="M43.4189 10.3907H48.6055V14.142H50.205V10.3907H55.4529V9.20215H43.4189V10.3907Z" fill="#1D1D1B"/>
<path d="M45.0903 7.92902H53.4706C53.6446 7.93036 53.812 7.86416 53.9365 7.74486C54.0609 7.62555 54.1322 7.46281 54.1349 7.29211V2.6582H52.4844V4.07746H46.0459V2.6582H44.426V7.29211C44.4267 7.37683 44.4444 7.46059 44.4782 7.53855C44.5121 7.61651 44.5613 7.68714 44.623 7.74635C44.6848 7.80556 44.7579 7.85218 44.8381 7.88353C44.9183 7.91488 45.004 7.93034 45.0903 7.92902ZM46.0459 5.26603H52.4844V6.71537H46.0459V5.26603Z" fill="#1D1D1B"/>
<path d="M60.1744 6.20392C60.8398 7.39858 61.9318 8.30956 63.2404 8.76159L64.0733 7.56801C63.7595 7.52183 63.4536 7.4341 63.1638 7.30723C62.3685 6.95736 61.718 6.35256 61.3191 5.59209C60.8387 4.6643 60.9358 3.62619 60.9358 2.61816H59.3057C59.3057 3.9973 59.3517 5.31124 58.4319 6.46972C57.8751 7.12003 57.1025 7.55687 56.25 7.70342L57.1545 8.89199C57.8237 8.68288 58.439 8.33446 58.9585 7.87055C59.4779 7.40663 59.8892 6.83814 60.1642 6.20392" fill="#1D1D1B"/>
<path d="M59.2447 10.1904H57.584V13.4301C57.5847 13.5151 57.6024 13.5991 57.6361 13.6773C57.6699 13.7556 57.719 13.8265 57.7807 13.8861C57.8423 13.9458 57.9154 13.9929 57.9956 14.0248C58.0759 14.0567 58.1617 14.0727 58.2483 14.0721H67.0732V12.8534H59.2447V10.1904Z" fill="#1D1D1B"/>
<path d="M66.8335 2.57227H65.2188V10.3606H66.8335V6.97046H68.6731V5.69664H66.8335V2.57227Z" fill="#1D1D1B"/>
<path d="M86.6542 5.56185V4.51371H89.3062V3.29004H82.3363V4.51371H85.1007V5.54179C85.1007 7.5779 83.8641 9.86476 81.8457 10.7925L82.7808 11.9861C83.534 11.5913 84.1994 11.0532 84.7381 10.403C85.2768 9.75289 85.678 9.00388 85.9183 8.19977C86.1683 8.9544 86.5679 9.65306 87.0941 10.2555C87.6203 10.858 88.2627 11.3524 88.9843 11.7103L89.853 10.5217C88.9126 10.0646 88.1191 9.36138 87.5601 8.48972C87.001 7.61806 86.6981 6.61179 86.6848 5.58191" fill="#1D1D1B"/>
<path d="M92.4392 2.57227H90.8193V14.142H92.4392V8.10386H94.4627V6.84508H92.4392V2.57227Z" fill="#1D1D1B"/>
<path d="M98.1108 10.0303H96.4756V13.4204C96.4763 13.5054 96.494 13.5894 96.5277 13.6676C96.5615 13.7459 96.6106 13.8168 96.6723 13.8764C96.7339 13.936 96.807 13.9831 96.8872 14.015C96.9675 14.047 97.0533 14.063 97.1399 14.0624H105.96V12.8537H98.1108V10.0303Z" fill="#1D1D1B"/>
<path d="M102.332 5.61179C102.332 3.83647 100.799 2.56265 98.7957 2.55763C96.7926 2.55262 95.2188 3.83647 95.2188 5.61179C95.2188 7.38712 96.7517 8.68602 98.7957 8.68602C100.84 8.68602 102.342 7.41721 102.332 5.61179ZM96.8284 5.61179C96.8284 4.55863 97.6664 3.87157 98.7957 3.87157C99.0306 3.87157 99.2632 3.91698 99.4801 4.00519C99.6971 4.0934 99.8943 4.22269 100.06 4.38568C100.226 4.54867 100.358 4.74217 100.448 4.95513C100.538 5.16809 100.584 5.39633 100.584 5.62684C100.584 5.85734 100.538 6.08559 100.448 6.29855C100.358 6.51151 100.226 6.70501 100.06 6.868C99.8943 7.03099 99.6971 7.16028 99.4801 7.24849C99.2632 7.3367 99.0306 7.38211 98.7957 7.38211C97.6664 7.38211 96.8182 6.70507 96.8284 5.62182" fill="#1D1D1B"/>
<path d="M105.976 2.57227H104.346V10.4208H105.976V2.57227Z" fill="#1D1D1B"/>
<path d="M112.138 6.79013C112.461 7.39674 112.906 7.93214 113.448 8.36337C113.989 8.79461 114.614 9.11256 115.286 9.29766L116.103 8.13417C114.029 7.52233 112.93 6.06295 112.93 4.55844V4.2124H115.669V3.00879H108.515V4.2124H111.325V4.55844C111.325 6.14821 110.191 7.7129 108.096 8.35483L108.903 9.52835C109.608 9.3189 110.26 8.96648 110.818 8.49391C111.375 8.02135 111.825 7.43918 112.138 6.78512" fill="#1D1D1B"/>
<path d="M111.008 10.1602H109.353V13.43C109.353 13.5149 109.371 13.5989 109.405 13.6772C109.438 13.7554 109.488 13.8263 109.549 13.886C109.611 13.9456 109.684 13.9927 109.764 14.0246C109.844 14.0565 109.93 14.0726 110.017 14.0719H118.857V12.8532H111.008V10.1602Z" fill="#1D1D1B"/>
<path d="M118.858 2.57227H117.228V10.3807H118.858V2.57227Z" fill="#1D1D1B"/>
<path d="M137.238 11.7302H138.812V8.86163H141.909V7.62793C139.057 7.62793 136.507 7.62793 134.08 7.62793V8.86163H137.238V11.7302Z" fill="#1D1D1B"/>
<path d="M136.39 12.8531V10.4609H134.775V13.4298C134.776 13.5148 134.794 13.5988 134.828 13.677C134.861 13.7553 134.91 13.8262 134.972 13.8858C135.034 13.9454 135.107 13.9925 135.187 14.0244C135.267 14.0564 135.353 14.0724 135.44 14.0718H145V12.8531H136.39Z" fill="#1D1D1B"/>
<path d="M140.488 10.7476H143.064V11.7305H144.694V2.61816H143.064V9.68938H140.488V10.7476Z" fill="#1D1D1B"/>
<path d="M78.5657 10.1049C76.6852 10.1049 73.3178 10.1049 71.6877 10.1049V4.42783H76.9663V3.19413H70.0576V10.7167C70.0583 10.8017 70.076 10.8857 70.1097 10.9639C70.1435 11.0421 70.1926 11.1131 70.2543 11.1727C70.316 11.2323 70.389 11.2794 70.4693 11.3113C70.5495 11.3432 70.6353 11.3593 70.7219 11.3586H78.5657V14.142H80.1958V2.57227H78.5657V10.1049Z" fill="#1D1D1B"/>
<path d="M123.707 6.21369C123.707 7.7182 125.015 8.79643 126.702 8.79643C128.388 8.79643 129.686 7.73325 129.676 6.21369C129.68 5.86593 129.606 5.52148 129.461 5.20442C129.315 4.88737 129.101 4.60538 128.832 4.37818H132.006V3.23976H127.514V2.14648H125.915V3.23976H121.377V4.37818H124.566C124.295 4.60462 124.078 4.88611 123.93 5.20309C123.782 5.52006 123.706 5.86492 123.707 6.21369ZM126.696 4.83956C126.971 4.86201 127.233 4.96254 127.45 5.12883C127.667 5.29512 127.83 5.51995 127.919 5.77577C128.007 6.03159 128.018 6.30728 127.95 6.56908C127.881 6.83087 127.737 7.0674 127.533 7.24966C127.33 7.43193 127.077 7.55202 126.805 7.59523C126.533 7.63844 126.255 7.60288 126.003 7.49292C125.751 7.38296 125.538 7.20336 125.389 6.97614C125.24 6.74892 125.161 6.48395 125.163 6.21369C125.166 6.02263 125.208 5.83405 125.287 5.65966C125.367 5.48527 125.482 5.32879 125.626 5.19993C125.77 5.07108 125.939 4.9726 126.123 4.9106C126.307 4.84861 126.502 4.82443 126.696 4.83956Z" fill="#1D1D1B"/>
<path d="M137.83 7.02108C139.455 7.02108 140.702 6.01807 140.697 4.61386C140.705 4.50533 140.705 4.39641 140.697 4.28788C140.523 3.06922 139.343 2.22669 137.851 2.22168C136.226 2.22168 134.969 3.22469 134.969 4.61386C134.969 6.00302 136.226 7.02108 137.851 7.02108M137.851 3.38517C138.028 3.3679 138.207 3.38655 138.376 3.43995C138.545 3.49335 138.702 3.58036 138.836 3.69559C138.969 3.81081 139.077 3.95179 139.153 4.10976C139.229 4.26772 139.271 4.43931 139.276 4.61386C139.235 4.95737 139.066 5.27389 138.802 5.50352C138.538 5.73315 138.198 5.85996 137.846 5.85996C137.493 5.85996 137.153 5.73315 136.889 5.50352C136.626 5.27389 136.457 4.95737 136.415 4.61386C136.419 4.43813 136.461 4.26525 136.537 4.10617C136.614 3.9471 136.723 3.80531 136.858 3.68979C136.993 3.57427 137.151 3.48754 137.322 3.4351C137.493 3.38266 137.673 3.36566 137.851 3.38517Z" fill="#1D1D1B"/>
</g>
<defs>
<clipPath id="clip0_391_969">
<rect width="145" height="25" fill="white"/>
</clipPath>
</defs>
</svg>
