<svg width="124" height="25" viewBox="0 0 124 25" fill="none" xmlns="http://www.w3.org/2000/svg">
<path d="M21.7344 15.9797L19.9507 15.9577C19.5768 15.9315 19.2246 15.7726 18.9578 15.5098C18.7888 15.3229 18.66 15.1032 18.5797 14.8645C18.4993 14.6258 18.4691 14.3731 18.4908 14.1222L18.4577 10.8441H21.2452V7.23187H18.5091L18.4834 2.51839L14.4123 6.07552C14.4123 7.632 14.4123 15.051 14.4123 15.051C14.4123 16.813 15.0853 17.8812 15.8834 18.531C16.5876 19.0892 17.4378 19.4332 18.3326 19.5222H21.6866C21.6866 19.5222 21.9587 19.5478 22.0028 19.1954V16.1008C21.983 16.0495 21.9438 16.0079 21.8935 15.9853C21.8433 15.9626 21.7861 15.9606 21.7344 15.9797Z" fill="#0071CE"/>
<path d="M6.94685 6.1083C6.15467 6.10914 5.36851 6.24573 4.62263 6.51211V11.3137C4.87111 10.9725 5.19212 10.6904 5.56265 10.4877C5.93319 10.2849 6.34407 10.1665 6.76585 10.1409C7.18764 10.1153 7.60987 10.1831 8.0023 10.3395C8.39473 10.496 8.74763 10.7371 9.0357 11.0457L12.0918 8.35859C11.4368 7.64859 10.6414 7.082 9.75581 6.69466C8.87021 6.30732 7.91372 6.10766 6.94685 6.1083Z" fill="url(#paint0_linear_558_138)"/>
<path d="M12.1029 8.35871L9.0468 11.0458C9.51359 11.5441 9.77606 12.1991 9.78231 12.8813C9.77262 13.6219 9.46905 14.3285 8.9382 14.846C8.40736 15.3635 7.69256 15.6497 6.95059 15.6418C6.55708 15.6442 6.16735 15.5652 5.80595 15.4097C5.44455 15.2543 5.1193 15.0259 4.8507 14.7388C4.38514 14.2397 4.12287 13.5852 4.11519 12.9033V0L0 3.67093V12.8923C0.00232883 14.5732 0.640705 16.1912 1.78729 17.4222C2.44265 18.1327 3.23866 18.6996 4.12493 19.0869C5.01119 19.4743 5.96838 19.6737 6.93588 19.6725C7.83865 19.6837 8.73477 19.5171 9.57299 19.1823C10.4112 18.8475 11.1751 18.351 11.821 17.7213C12.4669 17.0916 12.982 16.341 13.3371 15.5124C13.6921 14.6838 13.8801 13.7935 13.8901 12.8923C13.8877 11.2104 13.2494 9.59129 12.1029 8.35871Z" fill="#0071CE"/>
<path d="M33.1679 12.7346L30.2038 15.341C30.695 15.8565 30.9666 16.5421 30.9614 17.2535C30.9517 18.0026 30.6445 18.7172 30.1073 19.2403C29.5702 19.7634 28.847 20.0523 28.0965 20.0434C27.6904 20.0442 27.2885 19.9596 26.9173 19.7952C26.546 19.6308 26.2135 19.3901 25.9415 19.089L22.97 21.699C24.3462 23.038 26.1969 23.7796 28.1186 23.7621C32.0021 23.7621 35.1501 20.8547 35.1501 17.2682C35.1467 16.4176 34.9691 15.5766 34.6282 14.797C34.2874 14.0174 33.7904 13.3156 33.1679 12.7346Z" fill="#19D3C5"/>
<path d="M25.2465 17.2534C25.2513 16.8827 25.3292 16.5165 25.4758 16.1759C25.6223 15.8352 25.8347 15.5267 26.1007 15.268C26.3668 15.0092 26.6812 14.8054 27.0262 14.668C27.3712 14.5306 27.7399 14.4623 28.1113 14.4672C28.4984 14.4657 28.8818 14.542 29.2387 14.6915C29.5957 14.8409 29.9189 15.0605 30.1891 15.3372L33.1532 12.7308C31.7885 11.4518 29.9832 10.746 28.1113 10.7595C24.2278 10.7595 21.0761 13.6669 21.0761 17.2534C21.0807 18.0806 21.2506 18.8985 21.5758 19.6593C21.901 20.4201 22.375 21.1085 22.9701 21.6842L25.9415 19.089C25.4906 18.5839 25.2431 17.9299 25.2465 17.2534Z" fill="url(#paint1_linear_558_138)"/>
<path d="M41.0894 21.0712H42.1926C42.5657 21.0489 42.9382 21.1235 43.2738 21.2878C43.3985 21.3674 43.4987 21.4797 43.5636 21.6125C43.6285 21.7453 43.6555 21.8933 43.6416 22.0403C43.6499 22.2384 43.5945 22.4339 43.4835 22.5983C43.3753 22.7502 43.2114 22.8531 43.0274 22.8847V22.9104C43.1571 22.9354 43.2815 22.9826 43.3952 23.0498C43.5058 23.1192 43.596 23.2168 43.6563 23.3325C43.7256 23.487 43.7583 23.6553 43.7519 23.8244C43.7583 23.9794 43.7283 24.1338 43.6645 24.2753C43.6007 24.4167 43.5047 24.5414 43.3842 24.6394C43.1071 24.8461 42.766 24.9488 42.4206 24.9294H41.0783L41.0894 21.0712ZM41.7477 22.646H42.2846C42.4735 22.6657 42.6634 22.6189 42.8215 22.5139C42.8698 22.4659 42.9077 22.4086 42.933 22.3455C42.9583 22.2824 42.9704 22.2148 42.9686 22.1468C42.9733 22.0756 42.9595 22.0044 42.9286 21.9401C42.8976 21.8758 42.8506 21.8206 42.7921 21.7797C42.619 21.6935 42.4262 21.6543 42.2331 21.6659H41.7477V22.646ZM41.7477 23.2004V24.353H42.3618C42.4608 24.3645 42.561 24.3557 42.6564 24.3273C42.7519 24.2989 42.8406 24.2515 42.9171 24.1878C42.9707 24.1303 43.0124 24.0627 43.0395 23.989C43.0667 23.9152 43.0788 23.8368 43.0753 23.7583C43.0781 23.6829 43.0652 23.6077 43.0373 23.5376C43.0095 23.4674 42.9673 23.4038 42.9134 23.3509C42.7429 23.2324 42.5354 23.179 42.3287 23.2004H41.7477Z" fill="#0071CE"/>
<path d="M47.3632 21.0713V23.5675C47.3699 23.8218 47.3144 24.0738 47.2014 24.3017C47.0927 24.5156 46.9224 24.692 46.7123 24.8083C46.4551 24.942 46.1673 25.0066 45.8775 24.9955C45.6792 25.0091 45.4803 24.9811 45.2935 24.9135C45.1067 24.8459 44.9361 24.74 44.7926 24.6027C44.5384 24.3194 44.4063 23.9474 44.4249 23.5675V21.0713H45.0832V23.4941C45.061 23.7431 45.1346 23.9912 45.2891 24.1879C45.3707 24.2647 45.4675 24.3237 45.5733 24.361C45.679 24.3982 45.7914 24.4131 45.9033 24.4045C46.0173 24.4142 46.1321 24.3982 46.2391 24.3575C46.346 24.3168 46.4424 24.2526 46.5211 24.1696C46.6624 23.9723 46.7313 23.7325 46.716 23.4904V21.0713H47.3632Z" fill="#0071CE"/>
<path d="M50.3789 23.8612C50.385 24.0156 50.3549 24.1694 50.2911 24.3102C50.2272 24.451 50.1314 24.5751 50.0112 24.6725C49.7302 24.886 49.3817 24.9916 49.0293 24.9698C48.6749 24.9801 48.3231 24.9059 48.0032 24.7532V24.1071C48.1693 24.1829 48.34 24.2479 48.5144 24.3017C48.696 24.3613 48.8859 24.3923 49.0771 24.3935C49.2505 24.4076 49.4231 24.358 49.5625 24.254C49.6135 24.208 49.6536 24.1511 49.6797 24.0875C49.7058 24.024 49.7173 23.9554 49.7133 23.8869C49.7126 23.8146 49.6945 23.7435 49.6606 23.6796C49.6267 23.6158 49.5779 23.5609 49.5184 23.5198C49.3392 23.3972 49.1482 23.2927 48.9483 23.2078C48.7954 23.1443 48.6499 23.0642 48.5144 22.9692C48.3748 22.8733 48.258 22.748 48.1724 22.6021C48.0817 22.4343 48.0373 22.2456 48.0437 22.0551C48.0364 21.9094 48.0624 21.7639 48.1197 21.6297C48.1771 21.4955 48.2642 21.3761 48.3746 21.2805C48.6264 21.0834 48.9414 20.9842 49.2609 21.0015C49.4454 21.0013 49.6292 21.0222 49.8089 21.0639C49.9844 21.1098 50.1555 21.1712 50.3201 21.2475L50.1105 21.8055C49.9674 21.7411 49.8199 21.6871 49.6691 21.6439C49.5305 21.6039 49.3868 21.5841 49.2426 21.5852C49.0963 21.5747 48.9511 21.6178 48.8343 21.7064C48.7886 21.7481 48.7524 21.7993 48.7283 21.8563C48.7041 21.9133 48.6927 21.9749 48.6946 22.0367C48.6914 22.132 48.7184 22.2258 48.7718 22.3047C48.8353 22.3891 48.917 22.4581 49.0109 22.5066C49.1212 22.569 49.2609 22.6388 49.4301 22.7195C49.6082 22.7968 49.7782 22.8915 49.9376 23.0022C50.0805 23.0938 50.1965 23.2216 50.274 23.3724C50.3515 23.5233 50.3877 23.6919 50.3789 23.8612Z" fill="#0071CE"/>
<path d="M53.2878 24.9294L52.9532 23.9089H51.5557L51.2284 24.9294H50.526L51.8756 21.0566H52.6111L53.9571 24.9294H53.2878ZM52.784 23.3142L52.464 22.3194C52.464 22.2754 52.4309 22.2056 52.4052 22.1175C52.3795 22.0294 52.35 21.9413 52.328 21.8495C52.3059 21.7577 52.2838 21.6807 52.2654 21.6183C52.2458 21.6941 52.2238 21.7786 52.1993 21.8715L52.1294 22.1359C52.1143 22.198 52.0959 22.2593 52.0742 22.3194L51.7506 23.3142H52.784Z" fill="#0071CE"/>
<path d="M57.5428 24.9294H56.7227L54.9869 21.9046H54.9648C54.9648 22.0661 54.9648 22.2423 54.9869 22.4259C55.0089 22.6094 54.9869 22.793 55.0126 22.9839V24.9294H54.4205V21.0713H55.2333L56.9654 24.0778C56.9654 23.9346 56.9654 23.7658 56.947 23.5785C56.9286 23.3913 56.947 23.2115 56.947 23.0352V21.0713H57.5465L57.5428 24.9294Z" fill="#0071CE"/>
<path d="M61.0474 24.9294H60.3818V21.6586H59.33V21.0713H62.0956V21.6586H61.0401L61.0474 24.9294Z" fill="#0071CE"/>
<path d="M65.8982 22.9949C65.906 23.3526 65.8422 23.7083 65.7106 24.0411C65.5935 24.3246 65.3936 24.5664 65.1369 24.7349C64.8397 24.8988 64.5056 24.9848 64.1661 24.9848C63.8265 24.9848 63.4924 24.8988 63.1952 24.7349C62.9397 24.567 62.742 24.3248 62.6288 24.0411C62.4975 23.7069 62.4338 23.3501 62.4413 22.9912C62.4338 22.6359 62.4976 22.2827 62.6288 21.9523C62.7433 21.6683 62.9423 21.4262 63.1989 21.2585C63.493 21.084 63.8315 20.9985 64.1734 21.0126C64.5117 20.999 64.8467 21.0845 65.1369 21.2585C65.3946 21.426 65.5947 21.6681 65.7106 21.9523C65.8423 22.2838 65.9061 22.6383 65.8982 22.9949ZM63.1363 22.9949C63.1157 23.3542 63.2014 23.7116 63.3827 24.0227C63.4711 24.1465 63.59 24.2453 63.7279 24.3096C63.8658 24.3739 64.018 24.4016 64.1697 24.3898C64.3222 24.4033 64.4756 24.3765 64.6144 24.3121C64.7532 24.2476 64.8725 24.1478 64.9604 24.0227C65.12 23.7042 65.203 23.3529 65.203 22.9967C65.203 22.6405 65.12 22.2892 64.9604 21.9707C64.8734 21.8456 64.7547 21.7457 64.6165 21.6813C64.4782 21.6168 64.3254 21.59 64.1734 21.6036C64.0211 21.5915 63.8683 21.619 63.7297 21.6833C63.5912 21.7477 63.4717 21.8466 63.3827 21.9707C63.2008 22.2803 63.1139 22.6364 63.1327 22.9949H63.1363Z" fill="#0071CE"/>
<path d="M69.5353 21.0713V23.5675C69.5401 23.8216 69.4847 24.0731 69.3735 24.3017C69.2633 24.5157 69.0918 24.692 68.8807 24.8083C68.6235 24.942 68.3358 25.0066 68.0459 24.9955C67.8447 25.0115 67.6423 24.9847 67.4522 24.917C67.262 24.8493 67.0884 24.7422 66.9427 24.6027C66.6885 24.3194 66.5564 23.9474 66.5749 23.5675V21.0713H67.2332V23.4941C67.2104 23.7426 67.2826 23.9905 67.4354 24.1879C67.5171 24.2647 67.6139 24.3237 67.7196 24.361C67.8254 24.3982 67.9378 24.4131 68.0496 24.4045C68.1642 24.4143 68.2795 24.3982 68.3871 24.3576C68.4947 24.3169 68.5917 24.2526 68.6711 24.1696C68.8095 23.9711 68.8769 23.7318 68.8623 23.4904V21.0713H69.5353Z" fill="#0071CE"/>
<path d="M71.4587 21.0712C71.8371 21.0423 72.2142 21.1419 72.5288 21.3538C72.6487 21.4593 72.7423 21.5911 72.8023 21.7389C72.8623 21.8868 72.8871 22.0465 72.8745 22.2055C72.8796 22.3713 72.8456 22.536 72.7752 22.6864C72.7134 22.8153 72.6244 22.9292 72.5141 23.0204C72.4101 23.1063 72.2951 23.1779 72.1721 23.2333L73.2276 24.9293H72.4921L71.6131 23.4059H71.0799V24.9293H70.4216V21.0712H71.4587ZM71.4145 21.6585H71.0725V22.8479H71.4403C71.6496 22.8664 71.8588 22.8119 72.0324 22.6937C72.0943 22.6351 72.1426 22.5636 72.1737 22.4843C72.2049 22.405 72.2181 22.3198 72.2126 22.2348C72.2206 22.1504 72.2069 22.0653 72.1728 21.9875C72.1387 21.9098 72.0853 21.8421 72.0177 21.7907C71.8339 21.6886 71.6242 21.6427 71.4145 21.6585Z" fill="#0071CE"/>
<path d="M74.9266 24.9294H73.3857V24.5367L73.827 24.3641V21.6586L73.3857 21.4824V21.0713H74.9266V21.4678L74.4853 21.644V24.3641L74.9266 24.5367V24.9294Z" fill="#0071CE"/>
<path d="M77.6664 23.8612C77.6724 24.0156 77.6424 24.1694 77.5785 24.3102C77.5147 24.451 77.4189 24.5751 77.2986 24.6725C77.0177 24.886 76.6692 24.9916 76.3167 24.9698C75.9612 24.9797 75.6083 24.9055 75.287 24.7532V24.1071C75.4546 24.1822 75.6265 24.2472 75.8019 24.3017C75.9835 24.3613 76.1733 24.3923 76.3645 24.3935C76.538 24.4076 76.7106 24.358 76.85 24.254C76.901 24.208 76.9411 24.1511 76.9672 24.0875C76.9933 24.024 77.0047 23.9554 77.0008 23.8869C77.0001 23.8146 76.982 23.7435 76.9481 23.6796C76.9142 23.6158 76.8654 23.5609 76.8058 23.5198C76.6266 23.3972 76.4357 23.2927 76.2358 23.2078C76.0829 23.1443 75.9374 23.0642 75.8019 22.9692C75.6623 22.8733 75.5455 22.748 75.4599 22.6021C75.3692 22.4343 75.3247 22.2456 75.3311 22.0551C75.3238 21.9094 75.3499 21.7639 75.4072 21.6297C75.4645 21.4955 75.5517 21.3761 75.6621 21.2805C75.9139 21.0834 76.2289 20.9842 76.5484 21.0015C76.7329 21.0013 76.9167 21.0222 77.0964 21.0639C77.2719 21.1098 77.443 21.1712 77.6076 21.2475L77.3979 21.8055C77.2549 21.7411 77.1074 21.6871 76.9566 21.6439C76.8168 21.6036 76.6719 21.5839 76.5263 21.5852C76.3812 21.5749 76.2373 21.618 76.1218 21.7064C76.076 21.7481 76.0399 21.7993 76.0157 21.8563C75.9916 21.9133 75.9801 21.9749 75.9821 22.0367C75.9788 22.132 76.0059 22.2258 76.0593 22.3047C76.1227 22.3891 76.2045 22.4581 76.2983 22.5066C76.4087 22.569 76.5484 22.6388 76.7176 22.7195C76.8957 22.7968 77.0657 22.8915 77.2251 23.0022C77.368 23.0938 77.484 23.2216 77.5615 23.3724C77.639 23.5233 77.6752 23.6919 77.6664 23.8612Z" fill="#0071CE"/>
<path d="M79.8913 24.9294L78.8836 21.7688H78.8616C78.8616 21.8422 78.8616 21.945 78.88 22.0735C78.8983 22.2019 78.88 22.3488 78.88 22.503C78.88 22.6571 78.88 22.7966 78.88 22.9325V24.9294H78.2915V21.0713H79.2036L80.1708 24.1035H80.1928L81.2005 21.0713H82.1162V24.9294H81.4874V22.8994C81.4874 22.7783 81.4874 22.6425 81.4874 22.4956C81.4874 22.3488 81.4874 22.213 81.5057 22.0808C81.5241 21.9487 81.5057 21.8459 81.5057 21.7761H81.4874L80.4356 24.9294H79.8913Z" fill="#0071CE"/>
<path d="M87.5958 22.9946C87.6036 23.3523 87.5398 23.708 87.4082 24.0408C87.2944 24.3263 87.0938 24.569 86.8345 24.7346C86.5379 24.8982 86.2045 24.984 85.8655 24.984C85.5266 24.984 85.1932 24.8982 84.8965 24.7346C84.641 24.5667 84.4433 24.3245 84.3301 24.0408C84.1988 23.7066 84.1351 23.3498 84.1426 22.9909C84.1351 22.6356 84.1988 22.2824 84.3301 21.952C84.443 21.6671 84.6423 21.4245 84.9002 21.2582C85.1941 21.0833 85.5328 20.9978 85.8747 21.0123C86.213 20.9987 86.548 21.0842 86.8382 21.2582C87.0948 21.4259 87.2937 21.6681 87.4082 21.952C87.5399 22.2836 87.6037 22.6381 87.5958 22.9946ZM84.834 22.9946C84.8145 23.3543 84.9014 23.7117 85.084 24.0225C85.1796 24.1392 85.2999 24.2332 85.4363 24.2978C85.5728 24.3624 85.7219 24.3959 85.8729 24.3959C86.0239 24.3959 86.173 24.3624 86.3094 24.2978C86.4458 24.2332 86.5662 24.1392 86.6617 24.0225C86.8213 23.7039 86.9043 23.3526 86.9043 22.9964C86.9043 22.6403 86.8213 22.289 86.6617 21.9704C86.5747 21.8453 86.456 21.7455 86.3178 21.681C86.1795 21.6165 86.0267 21.5897 85.8747 21.6033C85.7223 21.5905 85.5692 21.6177 85.4305 21.6821C85.2919 21.7465 85.1724 21.8458 85.084 21.9704C84.9047 22.2808 84.8203 22.6369 84.8413 22.9946H84.834Z" fill="#0071CE"/>
<path d="M89.3794 21.0712C89.7579 21.0423 90.135 21.1419 90.4496 21.3538C90.5699 21.4591 90.6641 21.5908 90.7247 21.7386C90.7853 21.8864 90.8107 22.0462 90.799 22.2055C90.8047 22.3718 90.7693 22.5369 90.696 22.6864C90.6342 22.8153 90.5451 22.9292 90.4349 23.0204C90.3309 23.1063 90.2159 23.1779 90.0929 23.2333L91.1483 24.9293H90.4128L89.5339 23.4059H88.9933V24.9293H88.3313V21.0712H89.3794ZM89.339 21.6512H88.9933V22.8405H89.361C89.5703 22.8591 89.7796 22.8046 89.9531 22.6864C90.0157 22.6283 90.0644 22.5568 90.0956 22.4774C90.1268 22.398 90.1397 22.3126 90.1333 22.2275C90.1413 22.143 90.1276 22.0579 90.0935 21.9802C90.0594 21.9025 90.006 21.8347 89.9384 21.7833C89.7553 21.6837 89.5467 21.6403 89.339 21.6585V21.6512Z" fill="#0071CE"/>
<path d="M93.0717 22.8112H94.4581V24.7752C94.263 24.8433 94.0625 24.8949 93.8587 24.9294C93.6278 24.968 93.394 24.9864 93.1599 24.9844C92.9209 24.9993 92.6815 24.9606 92.4594 24.871C92.2373 24.7814 92.0381 24.6433 91.8765 24.4668C91.5567 24.0464 91.3987 23.5253 91.4315 22.9984C91.4221 22.6369 91.499 22.2783 91.6558 21.9522C91.7965 21.6629 92.0223 21.4234 92.3031 21.2658C92.623 21.0961 92.9817 21.0126 93.3438 21.0235C93.5392 21.0233 93.734 21.0442 93.9249 21.0859C94.099 21.1261 94.2689 21.1826 94.4324 21.2548L94.208 21.8237C94.0765 21.7612 93.9399 21.7096 93.7998 21.6696C93.6463 21.6283 93.4881 21.6073 93.3291 21.6072C93.1 21.6004 92.8738 21.6603 92.6782 21.7797C92.4942 21.8977 92.3496 22.0677 92.2626 22.2679C92.1603 22.499 92.1101 22.7496 92.1155 23.0021C92.1104 23.2513 92.1477 23.4996 92.2258 23.7363C92.2931 23.9444 92.429 24.1237 92.6112 24.2449C92.7935 24.3662 93.0115 24.4224 93.2298 24.4044C93.3406 24.4059 93.4512 24.3986 93.5608 24.3824C93.6527 24.3824 93.7373 24.353 93.8109 24.3347V23.4059H93.0754L93.0717 22.8112Z" fill="#0071CE"/>
<path d="M97.5546 24.9294L97.2199 23.9089H95.8372L95.5099 24.9294H94.8074L96.1571 21.0566H96.8926L98.2607 24.9294H97.5546ZM97.0508 23.3142L96.7308 22.3194C96.7308 22.2754 96.6977 22.2056 96.672 22.1175C96.6462 22.0294 96.6168 21.9413 96.5947 21.8495C96.5727 21.7577 96.5469 21.6807 96.5322 21.6183C96.5151 21.6941 96.493 21.7786 96.466 21.8715L96.3961 22.1359C96.3811 22.198 96.3627 22.2593 96.341 22.3194L96.0174 23.3142H97.0508Z" fill="#0071CE"/>
<path d="M101.81 24.9294H100.989L99.2536 21.9046H99.2316C99.2316 22.0661 99.2316 22.2423 99.2536 22.4259C99.2757 22.6094 99.272 22.793 99.2794 22.9839V24.9294H98.6873V21.0713H99.5L101.232 24.0778C101.232 23.9346 101.232 23.7658 101.214 23.5785C101.195 23.3913 101.214 23.2115 101.195 23.0352V21.0713H101.795L101.81 24.9294Z" fill="#0071CE"/>
<path d="M103.957 24.9294H102.416V24.5367L102.858 24.3641V21.6586L102.416 21.4824V21.0713H103.957V21.4678L103.516 21.644V24.3641L103.957 24.5367V24.9294Z" fill="#0071CE"/>
<path d="M106.899 24.9294H104.237V24.4596L106.076 21.655H104.303V21.0713H106.877V21.5412L105.038 24.3458H106.91L106.899 24.9294Z" fill="#0071CE"/>
<path d="M109.742 24.9294L109.407 23.9089H108.025L107.697 24.9294H106.995L108.345 21.0566H109.08L110.426 24.9294H109.742ZM109.238 23.3142L108.926 22.3194C108.926 22.2754 108.893 22.2056 108.867 22.1175C108.841 22.0294 108.812 21.9413 108.79 21.8495C108.768 21.7577 108.745 21.6807 108.727 21.6183C108.71 21.6941 108.688 21.7786 108.661 21.8715L108.591 22.1359C108.576 22.198 108.558 22.2593 108.536 22.3194L108.212 23.3142H109.238Z" fill="#0071CE"/>
<path d="M112.191 24.9294H111.533V21.6586H110.478V21.0713H113.243V21.6586H112.191V24.9294Z" fill="#0071CE"/>
<path d="M114.997 24.9294H113.456V24.5367L113.898 24.3641V21.6586L113.456 21.4824V21.0713H114.997V21.4678L114.556 21.644V24.3641L114.997 24.5367V24.9294Z" fill="#0071CE"/>
<path d="M118.885 22.9946C118.892 23.3523 118.829 23.708 118.697 24.0408C118.583 24.3263 118.383 24.569 118.123 24.7346C117.827 24.8982 117.493 24.984 117.154 24.984C116.815 24.984 116.482 24.8982 116.185 24.7346C115.93 24.5667 115.732 24.3245 115.619 24.0408C115.488 23.7066 115.424 23.3498 115.431 22.9909C115.424 22.6356 115.488 22.2824 115.619 21.952C115.733 21.6681 115.932 21.4259 116.189 21.2582C116.483 21.0833 116.822 20.9978 117.163 21.0123C117.502 20.9987 117.837 21.0842 118.127 21.2582C118.385 21.4245 118.584 21.6671 118.697 21.952C118.829 22.2836 118.892 22.6381 118.885 22.9946ZM116.126 22.9946C116.106 23.3539 116.191 23.7114 116.373 24.0225C116.461 24.1462 116.58 24.245 116.718 24.3093C116.856 24.3737 117.008 24.4013 117.16 24.3895C117.312 24.4031 117.466 24.3762 117.604 24.3118C117.743 24.2474 117.863 24.1476 117.95 24.0225C118.11 23.7039 118.193 23.3526 118.193 22.9964C118.193 22.6403 118.11 22.289 117.95 21.9704C117.863 21.8453 117.745 21.7455 117.606 21.681C117.468 21.6165 117.315 21.5897 117.163 21.6033C117.011 21.5913 116.858 21.6188 116.72 21.6831C116.581 21.7474 116.462 21.8464 116.373 21.9704C116.192 22.2804 116.106 22.6365 116.126 22.9946Z" fill="#0071CE"/>
<path d="M122.739 24.9294H121.918L120.183 21.9046H120.161C120.161 22.0661 120.161 22.2423 120.186 22.4259L120.208 22.9839V24.9294H119.616V21.0713H120.429L122.161 24.0778C122.161 23.9346 122.161 23.7658 122.161 23.5785C122.161 23.3913 122.161 23.2115 122.161 23.0352V21.0713H122.757L122.739 24.9294Z" fill="#0071CE"/>
<path d="M39.7654 13.0797H45.1935V17.7161H47.3338V13.0797H52.7325V11.4351H39.7654V13.0797Z" fill="#0071CE"/>
<path d="M43.443 10.297H50.9305V3.7921H48.8747V5.43301H43.5423V3.7921H41.5159V8.65242C41.5159 8.65242 41.5454 10.3521 43.443 10.297ZM43.5423 7.0886H48.8747V8.63406H44.0939C43.9656 8.64268 43.8388 8.60238 43.7392 8.52129C43.6395 8.44021 43.5744 8.32438 43.557 8.19722L43.5423 7.0886Z" fill="#0071CE"/>
<path d="M58.2967 15.9357C58.1683 15.9441 58.0415 15.9032 57.9423 15.8213C57.8432 15.7394 57.7792 15.6227 57.7635 15.4952V12.4446H55.7335V15.954C55.7335 15.954 55.7666 17.6463 57.6605 17.5949H64.8759V15.9357H58.2967Z" fill="#0071CE"/>
<path d="M57.9988 9.12955C58.3641 9.6438 58.7943 10.1089 59.2786 10.5135C59.8148 10.9423 60.3869 11.3242 60.9887 11.6552L62.1103 10.2235C61.1722 9.69912 60.367 8.96697 59.7567 8.08334C59.2722 7.19912 59.0335 6.20164 59.0653 5.19431V3.79569H56.9103V5.08786C56.9181 6.18156 56.6365 7.25794 56.0938 8.20815C55.4251 9.19724 54.5462 10.027 53.5196 10.6383L54.7515 12.0222C55.388 11.6709 55.9816 11.2471 56.5204 10.7594C57.0726 10.2729 57.5685 9.72623 57.9988 9.12955Z" fill="#0071CE"/>
<path d="M64.8537 3.54259H62.82L62.8715 14.0121H64.9052L64.8611 8.61949H66.8139L66.8102 6.97125H64.8537V3.54259Z" fill="#0071CE"/>
<path d="M79.2992 17.5837V15.9244H73.0474C72.9187 15.932 72.7919 15.8909 72.6924 15.8092C72.5928 15.7275 72.5278 15.6113 72.5104 15.4839V12.4554H70.4951V15.9427C70.4951 15.9427 70.5282 17.635 72.4259 17.5837H79.2992Z" fill="#0071CE"/>
<path d="M73.6946 5.45869C73.8229 5.45007 73.9497 5.49037 74.0494 5.57146C74.149 5.65254 74.2141 5.76837 74.2316 5.89553V10.33H76.2616V5.44033C76.2616 5.44033 76.2285 3.74436 74.3345 3.79576H68.9579V5.45869H73.6946Z" fill="#0071CE"/>
<path d="M72.5325 9.47849H77.2729V3.54259H79.3029V7.00428H81.2594V8.6562H79.3029V14.0121H77.2729V11.1561H67.8657V9.49685H70.4658V7.00428H72.5325V9.47849Z" fill="#0071CE"/>
<path d="M88.0775 5.44749C88.2062 5.43984 88.333 5.48097 88.4325 5.56265C88.5321 5.64433 88.5971 5.76054 88.6145 5.888V10.1463H90.6445V5.42914C90.6445 5.42914 90.6114 3.73684 88.7138 3.78823H83.4365V5.44749H88.0775Z" fill="#0071CE"/>
<path d="M93.7557 11.167L93.7778 8.64873H95.7342V6.98213H93.7778L93.7557 3.59386H91.722V9.5114H87.0919L87.125 7.00048H85.0583L85.0252 9.5114H82.4251V11.1707H91.722L93.7557 11.167Z" fill="#0071CE"/>
<path d="M89.8722 11.78C91.9758 11.78 93.7705 13.3181 93.7705 15.1903C93.7705 17.0624 91.9758 18.5712 89.8722 18.5712C87.7687 18.5712 85.9703 17.011 85.9703 15.1903C85.9703 13.3695 87.7797 11.78 89.8722 11.78ZM89.8024 16.8862C90.1299 16.8804 90.4485 16.7784 90.7182 16.5928C90.988 16.4073 91.1969 16.1464 91.3189 15.843C91.441 15.5395 91.4706 15.2068 91.4043 14.8866C91.3379 14.5664 91.1784 14.2728 90.9457 14.0426C90.7131 13.8124 90.4176 13.6557 90.0962 13.5923C89.7748 13.5288 89.4419 13.5613 89.1389 13.6857C88.836 13.8102 88.5765 14.021 88.393 14.2919C88.2094 14.5628 88.11 14.8816 88.107 15.2086C88.1174 15.6528 88.2998 16.0757 88.6159 16.3885C88.9321 16.7013 89.3573 16.8797 89.8024 16.8862Z" fill="#0071CE"/>
<path d="M103.409 11.78C105.52 11.78 107.311 13.3181 107.311 15.1903C107.311 17.0624 105.52 18.5712 103.409 18.5712C101.298 18.5712 99.5111 17.011 99.5111 15.1903C99.5111 13.3695 101.313 11.78 103.409 11.78ZM103.347 16.8862C103.674 16.8804 103.993 16.7784 104.263 16.5928C104.532 16.4073 104.741 16.1464 104.863 15.843C104.985 15.5395 105.015 15.2068 104.949 14.8866C104.882 14.5664 104.723 14.2728 104.49 14.0426C104.257 13.8124 103.962 13.6557 103.641 13.5923C103.319 13.5288 102.986 13.5613 102.683 13.6857C102.38 13.8102 102.121 14.021 101.937 14.2919C101.754 14.5628 101.654 14.8816 101.651 15.2086C101.662 15.6528 101.844 16.0757 102.16 16.3885C102.476 16.7013 102.902 16.8797 103.347 16.8862Z" fill="#0071CE"/>
<path d="M105.586 5.45869C105.715 5.44925 105.843 5.48973 105.943 5.57174C106.043 5.65375 106.108 5.771 106.123 5.8992V10.051H108.153V5.44033C108.153 5.44033 108.12 3.74436 106.226 3.79576H98.6064V5.45869H105.586Z" fill="#0071CE"/>
<path d="M103.384 6.98947H101.317V9.4857H96.7897V11.1413H109.9V9.4857H103.384V6.98947Z" fill="#0071CE"/>
<path d="M116.884 8.44317C116.439 7.40795 116.204 6.29505 116.193 5.1687V3.7921H114.074V5.20908C114.065 6.26388 113.856 7.30745 113.46 8.28532C112.77 9.44364 111.821 10.4273 110.687 11.1597L111.934 12.4996C112.598 12.0743 113.222 11.5902 113.798 11.0532C114.311 10.5783 114.773 10.0518 115.178 9.48205C115.574 10.0645 116.045 10.5927 116.579 11.0532C117.106 11.5274 117.679 11.9491 118.289 12.3123L119.443 10.9761C118.383 10.3698 117.501 9.49639 116.884 8.44317Z" fill="#0071CE"/>
<path d="M122.033 6.99684L122.029 3.53148L119.991 3.53515V17.7306H122.025V8.6561H123.96L124 6.99684H122.033Z" fill="#0071CE"/>
<path d="M21.7344 16.0088L19.9507 15.9868C19.5774 15.9584 19.2259 15.7999 18.9578 15.5389C18.7888 15.352 18.66 15.1323 18.5797 14.8936C18.4993 14.6549 18.4691 14.4022 18.4908 14.1513L18.4577 10.8695H21.2452V7.25732H18.5091L18.4834 2.54384L14.4123 6.10098C14.4123 7.66112 14.4123 15.0837 14.4123 15.0837C14.4123 16.8495 15.0853 17.9177 15.8834 18.5638C16.5866 19.1236 17.4374 19.4679 18.3326 19.5549H21.6866C21.6866 19.5549 21.9587 19.5843 22.0028 19.2282V16.152C21.9963 16.124 21.9838 16.0977 21.9663 16.0748C21.9488 16.052 21.9265 16.0332 21.9011 16.0196C21.8757 16.0061 21.8477 15.9981 21.8189 15.9962C21.7902 15.9944 21.7613 15.9987 21.7344 16.0088Z" fill="#0071CE"/>
<path d="M6.94685 6.1377C6.15503 6.13908 5.36917 6.27437 4.62263 6.53783V11.3431C4.87123 11.0022 5.19217 10.7204 5.56253 10.5177C5.93289 10.315 6.34353 10.1964 6.76511 10.1704C7.18669 10.1445 7.60881 10.2118 8.00132 10.3675C8.39383 10.5233 8.74703 10.7636 9.0357 11.0714L12.0918 8.38798C11.4368 7.67799 10.6414 7.1114 9.75581 6.72406C8.87021 6.33671 7.91372 6.13705 6.94685 6.1377Z" fill="url(#paint2_linear_558_138)"/>
<path d="M12.1029 8.38792L9.0468 11.0714C9.51236 11.5704 9.77464 12.2249 9.78231 12.9068C9.77358 13.6481 9.47044 14.3556 8.93949 14.8739C8.40854 15.3922 7.69319 15.6789 6.95059 15.6711C6.55684 15.6727 6.16702 15.593 5.80563 15.4369C5.44425 15.2809 5.11912 15.0519 4.8507 14.7643C4.38391 14.266 4.12144 13.611 4.11519 12.9289V0.0218679L0 3.6928V12.9179C0.00249212 14.5998 0.640781 16.2189 1.78729 17.4515C2.44265 18.1619 3.23866 18.7288 4.12493 19.1161C5.01119 19.5035 5.96838 19.7029 6.93588 19.7017C7.83882 19.7124 8.73503 19.5454 9.57327 19.2102C10.4115 18.875 11.1754 18.3782 11.8212 17.7482C12.467 17.1182 12.9822 16.3673 13.3372 15.5385C13.6922 14.7097 13.8801 13.8192 13.8901 12.9179C13.8878 11.237 13.2494 9.61898 12.1029 8.38792Z" fill="#0071CE"/>
<path d="M33.1679 12.7601L30.2038 15.3701C30.6962 15.8863 30.9679 16.5736 30.9614 17.2863C30.9566 17.6571 30.8787 18.0232 30.7321 18.3639C30.5855 18.7045 30.3731 19.0131 30.1071 19.2718C29.8411 19.5305 29.5266 19.7344 29.1816 19.8718C28.8367 20.0092 28.4679 20.0774 28.0965 20.0726C27.688 20.0704 27.2846 19.9815 26.9131 19.8119C26.5416 19.6423 26.2104 19.396 25.9415 19.089L22.97 21.699C24.3459 23.039 26.1965 23.7816 28.1186 23.7655C32.0021 23.7655 35.1501 20.8582 35.1501 17.2717C35.1437 16.4247 34.9646 15.588 34.6239 14.8124C34.2831 14.0367 33.7877 13.3385 33.1679 12.7601Z" fill="#19D3C5"/>
<path d="M25.2464 17.2864C25.2561 16.5374 25.5633 15.8228 26.1004 15.2997C26.6376 14.7766 27.3608 14.4877 28.1112 14.4965C28.4985 14.4958 28.882 14.5727 29.239 14.7228C29.5959 14.8729 29.919 15.0931 30.189 15.3702L33.1679 12.7601C31.8028 11.4821 29.9974 10.7776 28.1259 10.7926C24.2424 10.7926 21.0908 13.6999 21.0908 17.2864C21.0956 18.113 21.2657 18.9303 21.5909 19.6905C21.9161 20.4507 22.3899 21.1385 22.9847 21.7136L25.9415 19.089C25.4973 18.5929 25.2501 17.9518 25.2464 17.2864Z" fill="url(#paint3_linear_558_138)"/>
<defs>
<linearGradient id="paint0_linear_558_138" x1="156.114" y1="36.2306" x2="122.872" y2="-43.569" gradientUnits="userSpaceOnUse">
<stop stop-color="#009FE3"/>
<stop offset="1" stop-color="#006EB7"/>
</linearGradient>
<linearGradient id="paint1_linear_558_138" x1="42.9318" y1="8.01441" x2="45.4183" y2="19.7872" gradientUnits="userSpaceOnUse">
<stop stop-color="#52BBB5"/>
<stop offset="0.99" stop-color="#A5D7D5"/>
</linearGradient>
<linearGradient id="paint2_linear_558_138" x1="156.114" y1="36.2306" x2="122.872" y2="-43.569" gradientUnits="userSpaceOnUse">
<stop stop-color="#009FE3"/>
<stop offset="1" stop-color="#006EB7"/>
</linearGradient>
<linearGradient id="paint3_linear_558_138" x1="25.2573" y1="14.291" x2="27.9405" y2="17.1224" gradientUnits="userSpaceOnUse">
<stop stop-color="#52BBB5"/>
<stop offset="0.99" stop-color="#A5D7D5"/>
</linearGradient>
</defs>
</svg>
