<svg width="81" height="76" viewBox="0 0 81 76" fill="none" xmlns="http://www.w3.org/2000/svg">
<g clip-path="url(#clip0_391_778)">
<path d="M53.4388 47.6891C47.4802 52.3719 37.225 52.3781 27.6253 47.9429C30.5419 39.6171 31.787 27.2367 32.248 21.0713V20.9289C32.4079 17.1003 33.631 10.551 35.7542 8.64756C35.8395 8.54397 35.9485 8.46187 36.0723 8.40806C36.1961 8.35424 36.3311 8.33025 36.4661 8.33805C36.8801 8.36282 36.9522 8.45257 37.0588 8.59185C38.3133 10.1982 38.0969 15.2246 37.4602 18.2393L41.5968 19.1059L45.7334 19.9725C46.1222 18.1495 47.8691 8.80232 43.7764 3.52209C42.9723 2.47458 41.9424 1.61655 40.7611 1.01007C39.5797 0.403585 38.2766 0.0638204 36.9459 0.0153498C35.6907 -0.0577581 34.4336 0.122764 33.2516 0.545862C32.0695 0.968959 30.9874 1.62573 30.0715 2.47595C24.6554 7.33834 23.909 18.1835 23.7993 20.5203C23.125 29.4218 21.6479 38.3605 20.0986 43.8264C15.2125 41.177 10.6087 39.3354 6.52545 40.7994C1.2348 42.7122 -0.577886 49.0076 0.152832 52.8269C1.15953 58.0886 6.27456 60.4285 10.7467 60.4285H10.9286H11.2422C13.0329 60.4285 17.9661 59.9425 23.4731 55.207C33.2265 59.8497 45.5483 61.5675 55.1167 56.5317L53.4765 47.7045L53.4388 47.6891ZM11.3269 52.0903H11.261H10.9035C10.0881 52.0903 8.55766 51.7808 8.46358 51.2856C8.31618 50.5056 8.92459 48.8312 9.40442 48.6547C10.3453 48.3731 12.8103 49.4656 15.3003 50.7749C13.1709 51.9789 11.675 52.0841 11.3269 52.0903Z" fill="#C8DF93"/>
<path d="M70.7106 76.0001H70.5256C66.2793 75.901 63.0208 72.6728 62.7762 68.318C62.5441 64.2418 64.9715 59.1597 67.747 53.2759C70.8831 46.6586 75.1859 37.5931 72.423 34.2844C72.2505 34.0801 72.1093 33.9749 71.9996 33.9749C71.6684 33.9995 71.355 34.1323 71.1089 34.3525C69.7698 35.9 67.0915 44.8139 64.9433 51.9945C64.2094 54.4335 63.4411 56.9931 62.6351 59.6084C60.2297 67.4019 56.5134 72.5026 51.5865 74.7744C49.8555 75.5616 47.976 75.9803 46.0703 76.0032C44.1645 76.0261 42.2753 75.6528 40.5254 74.9075C36.7024 73.295 33.6541 69.0671 33.2778 64.8577C32.7728 59.1782 35.4291 53.0345 42.1593 44.3063C47.8231 36.9555 47.4437 33.3218 46.8196 32.545C46.7036 32.4099 46.5518 32.3095 46.3812 32.2548C46.2106 32.2001 46.0279 32.1934 45.8537 32.2354C42.7583 33.8697 40.309 38.5092 39.6284 40.1589L32.5 37.3238C32.8544 36.4572 36.1254 28.7658 42.244 25.5439C45.6184 23.7642 50.0843 24.6525 52.6465 27.6145C55.0237 30.366 57.6141 36.7976 48.2559 48.9118C41.2655 57.9804 40.7292 61.9855 40.9174 64.2109C41.0397 65.5944 42.3349 67.4452 43.5298 67.9497C44.2865 68.2799 45.1057 68.4473 45.933 68.4409C46.7603 68.4345 47.5767 68.2544 48.3281 67.9126C51.1506 66.6188 53.5497 62.9914 55.2683 57.4233C56.0712 54.8296 56.8364 52.2855 57.5577 49.8651C61.0733 38.1502 63.0177 31.9136 65.3761 29.3199C66.242 28.407 67.2886 27.6793 68.4512 27.1821C69.6137 26.6848 70.8674 26.4285 72.1344 26.4291C73.3321 26.4637 74.5076 26.7568 75.5782 27.2877C76.6488 27.8187 77.5886 28.5747 78.3314 29.5025C84.1897 36.5098 79.1437 47.1445 74.6904 56.535C72.6362 60.8682 70.2998 65.7708 70.4315 67.9404C70.4597 68.4542 70.5977 68.4573 70.6855 68.4604H70.7012C71.3567 68.4604 72.7867 67.4112 73.1254 64.1273L80.7713 64.8949C79.9936 72.5428 75.0448 76.0001 70.7106 76.0001Z" fill="#F2A6C0"/>
</g>
<defs>
<clipPath id="clip0_391_778">
<rect width="81" height="76" fill="white"/>
</clipPath>
</defs>
</svg>
