<svg width="27" height="27" viewBox="0 0 27 27" fill="none" xmlns="http://www.w3.org/2000/svg">
<path d="M13.5 27C11.655 27 9.91125 26.6454 8.26875 25.9362C6.62625 25.227 5.1921 24.2595 3.9663 23.0337C2.7405 21.8079 1.773 20.3738 1.0638 18.7313C0.3546 17.0888 0 15.345 0 13.5C0 11.6325 0.3546 9.88335 1.0638 8.25255C1.773 6.62175 2.7405 5.193 3.9663 3.9663C5.1921 2.7396 6.62625 1.7721 8.26875 1.0638C9.91125 0.3555 11.655 0.0009 13.5 0C15.3675 0 17.1171 0.3546 18.7488 1.0638C20.3805 1.773 21.8088 2.7405 23.0337 3.9663C24.2586 5.1921 25.2261 6.62085 25.9362 8.25255C26.6463 9.88425 27.0009 11.6334 27 13.5C27 15.345 26.6454 17.0888 25.9362 18.7313C25.227 20.3738 24.2595 21.8084 23.0337 23.0351C21.8079 24.2618 20.3791 25.2292 18.7474 25.9375C17.1157 26.6458 15.3666 27 13.5 27ZM13.5 24.2325C14.085 23.4225 14.5912 22.5788 15.0187 21.7013C15.4462 20.8238 15.795 19.89 16.065 18.9H10.935C11.205 19.89 11.5537 20.8238 11.9812 21.7013C12.4087 22.5788 12.915 23.4225 13.5 24.2325ZM9.99 23.6925C9.585 22.95 9.23085 22.1792 8.92755 21.38C8.62425 20.5808 8.3709 19.7541 8.1675 18.9H4.185C4.8375 20.025 5.65335 21.0037 6.63255 21.8362C7.61175 22.6687 8.7309 23.2875 9.99 23.6925ZM17.01 23.6925C18.27 23.2875 19.3896 22.6687 20.3688 21.8362C21.348 21.0037 22.1634 20.025 22.815 18.9H18.8325C18.63 19.755 18.3771 20.5821 18.0738 21.3813C17.7705 22.1805 17.4159 22.9509 17.01 23.6925ZM3.0375 16.2H7.6275C7.56 15.75 7.5096 15.3058 7.4763 14.8675C7.443 14.4292 7.4259 13.9734 7.425 13.5C7.4241 13.0266 7.4412 12.5712 7.4763 12.1338C7.5114 11.6964 7.5618 11.2518 7.6275 10.8H3.0375C2.925 11.25 2.84085 11.6946 2.78505 12.1338C2.72925 12.573 2.7009 13.0284 2.7 13.5C2.6991 13.9716 2.72745 14.4274 2.78505 14.8675C2.84265 15.3076 2.9268 15.7518 3.0375 16.2ZM10.3275 16.2H16.6725C16.74 15.75 16.7908 15.3058 16.825 14.8675C16.8592 14.4292 16.8759 13.9734 16.875 13.5C16.8741 13.0266 16.857 12.5712 16.8237 12.1338C16.7904 11.6964 16.74 11.2518 16.6725 10.8H10.3275C10.26 11.25 10.2096 11.6946 10.1763 12.1338C10.143 12.573 10.1259 13.0284 10.125 13.5C10.1241 13.9716 10.1412 14.4274 10.1763 14.8675C10.2114 15.3076 10.2618 15.7518 10.3275 16.2ZM19.3725 16.2H23.9625C24.075 15.75 24.1596 15.3058 24.2163 14.8675C24.273 14.4292 24.3009 13.9734 24.3 13.5C24.2991 13.0266 24.2712 12.5712 24.2163 12.1338C24.1614 11.6964 24.0768 11.2518 23.9625 10.8H19.3725C19.44 11.25 19.4908 11.6946 19.525 12.1338C19.5592 12.573 19.5759 13.0284 19.575 13.5C19.5741 13.9716 19.557 14.4274 19.5237 14.8675C19.4904 15.3076 19.44 15.7518 19.3725 16.2ZM18.8325 8.1H22.815C22.1625 6.975 21.3471 5.99625 20.3688 5.16375C19.3905 4.33125 18.2709 3.7125 17.01 3.3075C17.415 4.05 17.7696 4.82085 18.0738 5.62005C18.378 6.41925 18.6309 7.2459 18.8325 8.1ZM10.935 8.1H16.065C15.795 7.11 15.4462 6.17625 15.0187 5.29875C14.5912 4.42125 14.085 3.5775 13.5 2.7675C12.915 3.5775 12.4087 4.42125 11.9812 5.29875C11.5537 6.17625 11.205 7.11 10.935 8.1ZM4.185 8.1H8.1675C8.37 7.245 8.62335 6.4179 8.92755 5.6187C9.23175 4.8195 9.5859 4.0491 9.99 3.3075C8.73 3.7125 7.6104 4.33125 6.6312 5.16375C5.652 5.99625 4.8366 6.975 4.185 8.1Z" fill="#393C3D" fill-opacity="0.5"/>
</svg>
