<svg width="27" height="27" viewBox="0 0 27 27" fill="none" xmlns="http://www.w3.org/2000/svg">
<path d="M9.98577 19.9715C7.19488 19.9715 4.83312 19.0047 2.90048 17.0711C0.967853 15.1374 0.00102499 12.7756 8.12843e-07 9.98577C-0.00102337 7.1959 0.965804 4.83414 2.90048 2.90048C4.83516 0.966828 7.19693 0 9.98577 0C12.7746 0 15.1369 0.966828 17.0726 2.90048C19.0083 4.83414 19.9746 7.1959 19.9715 9.98577C19.9715 11.1124 19.7923 12.175 19.4339 13.1735C19.0754 14.1721 18.5889 15.0555 17.9744 15.8236L26.5775 24.4267C26.8592 24.7084 27 25.0669 27 25.5021C27 25.9374 26.8592 26.2959 26.5775 26.5775C26.2959 26.8592 25.9374 27 25.5021 27C25.0669 27 24.7084 26.8592 24.4267 26.5775L15.8236 17.9744C15.0555 18.5889 14.1721 19.0754 13.1735 19.4339C12.175 19.7923 11.1124 19.9715 9.98577 19.9715ZM9.98577 16.899C11.9061 16.899 13.5387 16.2271 14.8834 14.8834C16.2282 13.5397 16.9 11.9071 16.899 9.98577C16.898 8.06441 16.2261 6.43238 14.8834 5.08967C13.5407 3.74697 11.9082 3.07459 9.98577 3.07255C8.06339 3.0705 6.43135 3.74287 5.08967 5.08967C3.748 6.43647 3.07562 8.06851 3.07255 9.98577C3.06947 11.903 3.74185 13.5356 5.08967 14.8834C6.4375 16.2312 8.06953 16.9031 9.98577 16.899Z" fill="white" fill-opacity="0.5"/>
</svg>
