<svg width="27" height="27" viewBox="0 0 27 27" fill="none" xmlns="http://www.w3.org/2000/svg">
<path d="M13.5 13.5C11.6437 13.5 10.0547 12.8391 8.73281 11.5172C7.41094 10.1953 6.75 8.60625 6.75 6.75C6.75 4.89375 7.41094 3.30469 8.73281 1.98281C10.0547 0.660938 11.6437 0 13.5 0C15.3562 0 16.9453 0.660938 18.2672 1.98281C19.5891 3.30469 20.25 4.89375 20.25 6.75C20.25 8.60625 19.5891 10.1953 18.2672 11.5172C16.9453 12.8391 15.3562 13.5 13.5 13.5ZM0 23.625V22.275C0 21.3187 0.246375 20.4401 0.739125 19.6391C1.23188 18.8381 1.8855 18.2261 2.7 17.8031C4.44375 16.9312 6.21562 16.2776 8.01562 15.8422C9.81562 15.4069 11.6437 15.1886 13.5 15.1875C15.3562 15.1864 17.1844 15.4046 18.9844 15.8422C20.7844 16.2799 22.5562 16.9335 24.3 17.8031C25.1156 18.225 25.7698 18.837 26.2626 19.6391C26.7553 20.4412 27.0011 21.3199 27 22.275V23.625C27 24.5531 26.6698 25.3479 26.0094 26.0094C25.3491 26.6709 24.5542 27.0011 23.625 27H3.375C2.44687 27 1.65262 26.6698 0.99225 26.0094C0.331875 25.3491 0.001125 24.5542 0 23.625ZM3.375 23.625H23.625V22.275C23.625 21.9656 23.5479 21.6844 23.3938 21.4312C23.2397 21.1781 23.0355 20.9812 22.7812 20.8406C21.2625 20.0812 19.7297 19.512 18.1828 19.1329C16.6359 18.7537 15.075 18.5636 13.5 18.5625C11.925 18.5614 10.3641 18.7515 8.81719 19.1329C7.27031 19.5142 5.7375 20.0835 4.21875 20.8406C3.96562 20.9812 3.76144 21.1781 3.60619 21.4312C3.45094 21.6844 3.37387 21.9656 3.375 22.275V23.625ZM13.5 10.125C14.4281 10.125 15.2229 9.79481 15.8844 9.13444C16.5459 8.47406 16.8761 7.67925 16.875 6.75C16.8739 5.82075 16.5437 5.0265 15.8844 4.36725C15.2252 3.708 14.4304 3.37725 13.5 3.375C12.5696 3.37275 11.7754 3.7035 11.1172 4.36725C10.4591 5.031 10.1284 5.82525 10.125 6.75C10.1216 7.67475 10.4524 8.46956 11.1172 9.13444C11.7821 9.79931 12.5764 10.1295 13.5 10.125Z" fill="white" fill-opacity="0.5"/>
</svg>
